<?xml version="1.0" encoding="UTF-8" standalone="no"?>
<!DOCTYPE svg PUBLIC "-//W3C//DTD SVG 1.1//EN"
 "http://www.w3.org/Graphics/SVG/1.1/DTD/svg11.dtd">
<!-- Generated by graphviz version 2.47.0 (20210316.0004)
 -->
<!-- Title: dependencies Pages: 1 -->
<svg width="540pt" height="211pt"
 viewBox="0.00 0.00 540.00 211.00" xmlns="http://www.w3.org/2000/svg" xmlns:xlink="http://www.w3.org/1999/xlink">
<g id="graph0" class="graph" transform="scale(1 1) rotate(0) translate(4 207)">
<title>dependencies</title>
<polygon fill="white" stroke="transparent" points="-4,4 -4,-207 536,-207 536,4 -4,4"/>
<text text-anchor="start" x="245.01" y="-42.4" font-family="Times-12" font-weight="bold" font-size="14.00">Legend</text>
<polygon fill="#ffffb3" stroke="transparent" points="32,-10 32,-30 52,-30 52,-10 32,-10"/>
<text text-anchor="start" x="55.63" y="-15.4" font-family="Times-12" font-size="14.00"> &#160;Declarations</text>
<polygon fill="#8dd3c7" stroke="transparent" points="145,-10 145,-30 165,-30 165,-10 145,-10"/>
<text text-anchor="start" x="168.73" y="-15.4" font-family="Times-12" font-size="14.00"> &#160;Module</text>
<polygon fill="#80b1d3" stroke="transparent" points="231,-10 231,-30 251,-30 251,-10 231,-10"/>
<text text-anchor="start" x="254.78" y="-15.4" font-family="Times-12" font-size="14.00"> &#160;Bootstrap</text>
<polygon fill="#fdb462" stroke="transparent" points="328,-10 328,-30 348,-30 348,-10 328,-10"/>
<text text-anchor="start" x="351.67" y="-15.4" font-family="Times-12" font-size="14.00"> &#160;Providers</text>
<polygon fill="#fb8072" stroke="transparent" points="424,-10 424,-30 444,-30 444,-10 424,-10"/>
<text text-anchor="start" x="447.73" y="-15.4" font-family="Times-12" font-size="14.00"> &#160;Exports</text>
<g id="clust1" class="cluster">
<title>cluster_SmartContractsModule</title>
<polygon fill="none" stroke="black" stroke-dasharray="1,5" points="8,-70 8,-195 524,-195 524,-70 8,-70"/>
</g>
<g id="clust6" class="cluster">
<title>cluster_SmartContractsModule_providers</title>
<polygon fill="none" stroke="black" points="300,-78 300,-130 516,-130 516,-78 300,-78"/>
</g>
<g id="clust3" class="cluster">
<title>cluster_SmartContractsModule_imports</title>
<polygon fill="none" stroke="black" points="16,-78 16,-130 292,-130 292,-78 16,-78"/>
</g>
<!-- ContractsModule -->
<g id="node1" class="node">
<title>ContractsModule</title>
<polygon fill="#8dd3c7" stroke="black" points="283.7,-122 280.7,-126 259.7,-126 256.7,-122 170.3,-122 170.3,-86 283.7,-86 283.7,-122"/>
<text text-anchor="middle" x="227" y="-99.8" font-family="Times,serif" font-size="14.00">ContractsModule</text>
</g>
<!-- SmartContractsModule -->
<g id="node3" class="node">
<title>SmartContractsModule</title>
<polygon fill="#8dd3c7" stroke="black" points="300.14,-187 297.14,-191 276.14,-191 273.14,-187 153.86,-187 153.86,-151 300.14,-151 300.14,-187"/>
<text text-anchor="middle" x="227" y="-164.8" font-family="Times,serif" font-size="14.00">SmartContractsModule</text>
</g>
<!-- ContractsModule&#45;&gt;SmartContractsModule -->
<g id="edge1" class="edge">
<title>ContractsModule&#45;&gt;SmartContractsModule</title>
<path fill="none" stroke="black" d="M227,-122.11C227,-122.11 227,-140.99 227,-140.99"/>
<polygon fill="black" stroke="black" points="223.5,-140.99 227,-150.99 230.5,-140.99 223.5,-140.99"/>
</g>
<!-- QueueRedisModule -->
<g id="node2" class="node">
<title>QueueRedisModule</title>
<polygon fill="#8dd3c7" stroke="black" points="151.97,-122 148.97,-126 127.97,-126 124.97,-122 24.03,-122 24.03,-86 151.97,-86 151.97,-122"/>
<text text-anchor="middle" x="88" y="-99.8" font-family="Times,serif" font-size="14.00">QueueRedisModule</text>
</g>
<!-- QueueRedisModule&#45;&gt;SmartContractsModule -->
<g id="edge2" class="edge">
<title>QueueRedisModule&#45;&gt;SmartContractsModule</title>
<path fill="none" stroke="black" d="M152.05,-104C158.11,-104 162.04,-104 162.04,-104 162.04,-104 162.04,-140.89 162.04,-140.89"/>
<polygon fill="black" stroke="black" points="158.54,-140.89 162.04,-150.89 165.54,-140.89 158.54,-140.89"/>
</g>
<!-- SmartContractsService -->
<g id="node4" class="node">
<title>SmartContractsService</title>
<ellipse fill="#fdb462" stroke="black" cx="408" cy="-104" rx="100.13" ry="18"/>
<text text-anchor="middle" x="408" y="-99.8" font-family="Times,serif" font-size="14.00">SmartContractsService</text>
</g>
<!-- SmartContractsService&#45;&gt;SmartContractsModule -->
<g id="edge3" class="edge">
<title>SmartContractsService&#45;&gt;SmartContractsModule</title>
<path fill="none" stroke="black" d="M307.61,-104C298.12,-104 291.96,-104 291.96,-104 291.96,-104 291.96,-140.89 291.96,-140.89"/>
<polygon fill="black" stroke="black" points="288.46,-140.89 291.96,-150.89 295.46,-140.89 288.46,-140.89"/>
</g>
</g>
</svg>
