<?xml version="1.0" encoding="UTF-8" standalone="no"?>
<!DOCTYPE svg PUBLIC "-//W3C//DTD SVG 1.1//EN"
 "http://www.w3.org/Graphics/SVG/1.1/DTD/svg11.dtd">
<!-- Generated by graphviz version 2.47.0 (20210316.0004)
 -->
<!-- Title: dependencies Pages: 1 -->
<svg width="504pt" height="211pt"
 viewBox="0.00 0.00 504.00 211.00" xmlns="http://www.w3.org/2000/svg" xmlns:xlink="http://www.w3.org/1999/xlink">
<g id="graph0" class="graph" transform="scale(1 1) rotate(0) translate(4 207)">
<title>dependencies</title>
<polygon fill="white" stroke="transparent" points="-4,4 -4,-207 500,-207 500,4 -4,4"/>
<text text-anchor="start" x="227.01" y="-42.4" font-family="Times-12" font-weight="bold" font-size="14.00">Legend</text>
<polygon fill="#ffffb3" stroke="transparent" points="14,-10 14,-30 34,-30 34,-10 14,-10"/>
<text text-anchor="start" x="37.63" y="-15.4" font-family="Times-12" font-size="14.00"> &#160;Declarations</text>
<polygon fill="#8dd3c7" stroke="transparent" points="127,-10 127,-30 147,-30 147,-10 127,-10"/>
<text text-anchor="start" x="150.73" y="-15.4" font-family="Times-12" font-size="14.00"> &#160;Module</text>
<polygon fill="#80b1d3" stroke="transparent" points="213,-10 213,-30 233,-30 233,-10 213,-10"/>
<text text-anchor="start" x="236.78" y="-15.4" font-family="Times-12" font-size="14.00"> &#160;Bootstrap</text>
<polygon fill="#fdb462" stroke="transparent" points="310,-10 310,-30 330,-30 330,-10 310,-10"/>
<text text-anchor="start" x="333.67" y="-15.4" font-family="Times-12" font-size="14.00"> &#160;Providers</text>
<polygon fill="#fb8072" stroke="transparent" points="406,-10 406,-30 426,-30 426,-10 406,-10"/>
<text text-anchor="start" x="429.73" y="-15.4" font-family="Times-12" font-size="14.00"> &#160;Exports</text>
<g id="clust1" class="cluster">
<title>cluster_SmartContractsModule</title>
<polygon fill="none" stroke="black" stroke-dasharray="1,5" points="56,-70 56,-195 440,-195 440,-70 56,-70"/>
</g>
<g id="clust3" class="cluster">
<title>cluster_SmartContractsModule_imports</title>
<polygon fill="none" stroke="black" points="288,-78 288,-130 432,-130 432,-78 288,-78"/>
</g>
<g id="clust6" class="cluster">
<title>cluster_SmartContractsModule_providers</title>
<polygon fill="none" stroke="black" points="64,-78 64,-130 280,-130 280,-78 64,-78"/>
</g>
<!-- QueueRedisModule -->
<g id="node1" class="node">
<title>QueueRedisModule</title>
<polygon fill="#8dd3c7" stroke="black" points="423.97,-122 420.97,-126 399.97,-126 396.97,-122 296.03,-122 296.03,-86 423.97,-86 423.97,-122"/>
<text text-anchor="middle" x="360" y="-99.8" font-family="Times,serif" font-size="14.00">QueueRedisModule</text>
</g>
<!-- SmartContractsModule -->
<g id="node2" class="node">
<title>SmartContractsModule</title>
<polygon fill="#8dd3c7" stroke="black" points="338.14,-187 335.14,-191 314.14,-191 311.14,-187 191.86,-187 191.86,-151 338.14,-151 338.14,-187"/>
<text text-anchor="middle" x="265" y="-164.8" font-family="Times,serif" font-size="14.00">SmartContractsModule</text>
</g>
<!-- QueueRedisModule&#45;&gt;SmartContractsModule -->
<g id="edge1" class="edge">
<title>QueueRedisModule&#45;&gt;SmartContractsModule</title>
<path fill="none" stroke="black" d="M317.17,-122.11C317.17,-122.11 317.17,-140.99 317.17,-140.99"/>
<polygon fill="black" stroke="black" points="313.67,-140.99 317.17,-150.99 320.67,-140.99 313.67,-140.99"/>
</g>
<!-- SmartContractsService -->
<g id="node3" class="node">
<title>SmartContractsService</title>
<ellipse fill="#fdb462" stroke="black" cx="172" cy="-104" rx="100.13" ry="18"/>
<text text-anchor="middle" x="172" y="-99.8" font-family="Times,serif" font-size="14.00">SmartContractsService</text>
</g>
<!-- SmartContractsService&#45;&gt;SmartContractsModule -->
<g id="edge2" class="edge">
<title>SmartContractsService&#45;&gt;SmartContractsModule</title>
<path fill="none" stroke="black" d="M231.87,-118.43C231.87,-118.43 231.87,-140.89 231.87,-140.89"/>
<polygon fill="black" stroke="black" points="228.37,-140.89 231.87,-150.89 235.37,-140.89 228.37,-140.89"/>
</g>
</g>
</svg>
