<?xml version="1.0" encoding="UTF-8" standalone="no"?>
<!DOCTYPE svg PUBLIC "-//W3C//DTD SVG 1.1//EN"
 "http://www.w3.org/Graphics/SVG/1.1/DTD/svg11.dtd">
<!-- Generated by graphviz version 2.47.0 (20210316.0004)
 -->
<!-- Title: dependencies Pages: 1 -->
<svg width="504pt" height="284pt"
 viewBox="0.00 0.00 504.00 284.00" xmlns="http://www.w3.org/2000/svg" xmlns:xlink="http://www.w3.org/1999/xlink">
<g id="graph0" class="graph" transform="scale(1 1) rotate(0) translate(4 280)">
<title>dependencies</title>
<polygon fill="white" stroke="transparent" points="-4,4 -4,-280 500,-280 500,4 -4,4"/>
<text text-anchor="start" x="227.01" y="-42.4" font-family="Times-12" font-weight="bold" font-size="14.00">Legend</text>
<polygon fill="#ffffb3" stroke="transparent" points="14,-10 14,-30 34,-30 34,-10 14,-10"/>
<text text-anchor="start" x="37.63" y="-15.4" font-family="Times-12" font-size="14.00"> &#160;Declarations</text>
<polygon fill="#8dd3c7" stroke="transparent" points="127,-10 127,-30 147,-30 147,-10 127,-10"/>
<text text-anchor="start" x="150.73" y="-15.4" font-family="Times-12" font-size="14.00"> &#160;Module</text>
<polygon fill="#80b1d3" stroke="transparent" points="213,-10 213,-30 233,-30 233,-10 213,-10"/>
<text text-anchor="start" x="236.78" y="-15.4" font-family="Times-12" font-size="14.00"> &#160;Bootstrap</text>
<polygon fill="#fdb462" stroke="transparent" points="310,-10 310,-30 330,-30 330,-10 310,-10"/>
<text text-anchor="start" x="333.67" y="-15.4" font-family="Times-12" font-size="14.00"> &#160;Providers</text>
<polygon fill="#fb8072" stroke="transparent" points="406,-10 406,-30 426,-30 426,-10 406,-10"/>
<text text-anchor="start" x="429.73" y="-15.4" font-family="Times-12" font-size="14.00"> &#160;Exports</text>
<g id="clust1" class="cluster">
<title>cluster_ContractPartyInfosModule</title>
<polygon fill="none" stroke="black" stroke-dasharray="1,5" points="48,-70 48,-268 448,-268 448,-70 48,-70"/>
</g>
<g id="clust3" class="cluster">
<title>cluster_ContractPartyInfosModule_imports</title>
<polygon fill="none" stroke="black" points="306,-78 306,-130 440,-130 440,-78 306,-78"/>
</g>
<g id="clust6" class="cluster">
<title>cluster_ContractPartyInfosModule_providers</title>
<polygon fill="none" stroke="black" points="56,-78 56,-130 298,-130 298,-78 56,-78"/>
</g>
<g id="clust4" class="cluster">
<title>cluster_ContractPartyInfosModule_exports</title>
<polygon fill="none" stroke="black" points="170,-208 170,-260 354,-260 354,-208 170,-208"/>
</g>
<!-- PartyInfosModule -->
<g id="node1" class="node">
<title>PartyInfosModule</title>
<polygon fill="#8dd3c7" stroke="black" points="431.86,-122 428.86,-126 407.86,-126 404.86,-122 314.14,-122 314.14,-86 431.86,-86 431.86,-122"/>
<text text-anchor="middle" x="373" y="-99.8" font-family="Times,serif" font-size="14.00">PartyInfosModule</text>
</g>
<!-- ContractPartyInfosModule -->
<g id="node2" class="node">
<title>ContractPartyInfosModule</title>
<polygon fill="#8dd3c7" stroke="black" points="345.07,-187 342.07,-191 321.07,-191 318.07,-187 178.93,-187 178.93,-151 345.07,-151 345.07,-187"/>
<text text-anchor="middle" x="262" y="-164.8" font-family="Times,serif" font-size="14.00">ContractPartyInfosModule</text>
</g>
<!-- PartyInfosModule&#45;&gt;ContractPartyInfosModule -->
<g id="edge1" class="edge">
<title>PartyInfosModule&#45;&gt;ContractPartyInfosModule</title>
<path fill="none" stroke="black" d="M329.55,-122.11C329.55,-122.11 329.55,-140.99 329.55,-140.99"/>
<polygon fill="black" stroke="black" points="326.05,-140.99 329.55,-150.99 333.05,-140.99 326.05,-140.99"/>
</g>
<!-- ContractPartyInfosService  -->
<g id="node3" class="node">
<title>ContractPartyInfosService </title>
<polygon fill="#fb8072" stroke="black" points="346,-252 178,-252 178,-216 346,-216 346,-252"/>
<text text-anchor="middle" x="262" y="-229.8" font-family="Times,serif" font-size="14.00">ContractPartyInfosService </text>
</g>
<!-- ContractPartyInfosModule&#45;&gt;ContractPartyInfosService  -->
<g id="edge2" class="edge">
<title>ContractPartyInfosModule&#45;&gt;ContractPartyInfosService </title>
<path fill="none" stroke="black" stroke-dasharray="5,2" d="M262,-187.11C262,-187.11 262,-205.99 262,-205.99"/>
<polygon fill="black" stroke="black" points="258.5,-205.99 262,-215.99 265.5,-205.99 258.5,-205.99"/>
</g>
<!-- ContractPartyInfosService -->
<g id="node4" class="node">
<title>ContractPartyInfosService</title>
<ellipse fill="#fdb462" stroke="black" cx="177" cy="-104" rx="113.44" ry="18"/>
<text text-anchor="middle" x="177" y="-99.8" font-family="Times,serif" font-size="14.00">ContractPartyInfosService</text>
</g>
<!-- ContractPartyInfosService&#45;&gt;ContractPartyInfosModule -->
<g id="edge3" class="edge">
<title>ContractPartyInfosService&#45;&gt;ContractPartyInfosModule</title>
<path fill="none" stroke="black" d="M234.72,-119.73C234.72,-119.73 234.72,-140.65 234.72,-140.65"/>
<polygon fill="black" stroke="black" points="231.22,-140.65 234.72,-150.65 238.22,-140.65 231.22,-140.65"/>
</g>
</g>
</svg>
