<?xml version="1.0" encoding="UTF-8" standalone="no"?>
<!DOCTYPE svg PUBLIC "-//W3C//DTD SVG 1.1//EN"
 "http://www.w3.org/Graphics/SVG/1.1/DTD/svg11.dtd">
<!-- Generated by graphviz version 2.47.0 (20210316.0004)
 -->
<!-- Title: dependencies Pages: 1 -->
<svg width="504pt" height="284pt"
 viewBox="0.00 0.00 504.00 284.00" xmlns="http://www.w3.org/2000/svg" xmlns:xlink="http://www.w3.org/1999/xlink">
<g id="graph0" class="graph" transform="scale(1 1) rotate(0) translate(4 280)">
<title>dependencies</title>
<polygon fill="white" stroke="transparent" points="-4,4 -4,-280 500,-280 500,4 -4,4"/>
<text text-anchor="start" x="227.01" y="-42.4" font-family="Times-12" font-weight="bold" font-size="14.00">Legend</text>
<polygon fill="#ffffb3" stroke="transparent" points="14,-10 14,-30 34,-30 34,-10 14,-10"/>
<text text-anchor="start" x="37.63" y="-15.4" font-family="Times-12" font-size="14.00"> &#160;Declarations</text>
<polygon fill="#8dd3c7" stroke="transparent" points="127,-10 127,-30 147,-30 147,-10 127,-10"/>
<text text-anchor="start" x="150.73" y="-15.4" font-family="Times-12" font-size="14.00"> &#160;Module</text>
<polygon fill="#80b1d3" stroke="transparent" points="213,-10 213,-30 233,-30 233,-10 213,-10"/>
<text text-anchor="start" x="236.78" y="-15.4" font-family="Times-12" font-size="14.00"> &#160;Bootstrap</text>
<polygon fill="#fdb462" stroke="transparent" points="310,-10 310,-30 330,-30 330,-10 310,-10"/>
<text text-anchor="start" x="333.67" y="-15.4" font-family="Times-12" font-size="14.00"> &#160;Providers</text>
<polygon fill="#fb8072" stroke="transparent" points="406,-10 406,-30 426,-30 426,-10 406,-10"/>
<text text-anchor="start" x="429.73" y="-15.4" font-family="Times-12" font-size="14.00"> &#160;Exports</text>
<g id="clust1" class="cluster">
<title>cluster_ContractPartyInfosModule</title>
<polygon fill="none" stroke="black" stroke-dasharray="1,5" points="48,-70 48,-268 448,-268 448,-70 48,-70"/>
</g>
<g id="clust6" class="cluster">
<title>cluster_ContractPartyInfosModule_providers</title>
<polygon fill="none" stroke="black" points="198,-78 198,-130 440,-130 440,-78 198,-78"/>
</g>
<g id="clust3" class="cluster">
<title>cluster_ContractPartyInfosModule_imports</title>
<polygon fill="none" stroke="black" points="56,-78 56,-130 190,-130 190,-78 56,-78"/>
</g>
<g id="clust4" class="cluster">
<title>cluster_ContractPartyInfosModule_exports</title>
<polygon fill="none" stroke="black" points="141,-208 141,-260 325,-260 325,-208 141,-208"/>
</g>
<!-- PartyInfosModule -->
<g id="node1" class="node">
<title>PartyInfosModule</title>
<polygon fill="#8dd3c7" stroke="black" points="181.86,-122 178.86,-126 157.86,-126 154.86,-122 64.14,-122 64.14,-86 181.86,-86 181.86,-122"/>
<text text-anchor="middle" x="123" y="-99.8" font-family="Times,serif" font-size="14.00">PartyInfosModule</text>
</g>
<!-- ContractPartyInfosModule -->
<g id="node2" class="node">
<title>ContractPartyInfosModule</title>
<polygon fill="#8dd3c7" stroke="black" points="316.07,-187 313.07,-191 292.07,-191 289.07,-187 149.93,-187 149.93,-151 316.07,-151 316.07,-187"/>
<text text-anchor="middle" x="233" y="-164.8" font-family="Times,serif" font-size="14.00">ContractPartyInfosModule</text>
</g>
<!-- PartyInfosModule&#45;&gt;ContractPartyInfosModule -->
<g id="edge1" class="edge">
<title>PartyInfosModule&#45;&gt;ContractPartyInfosModule</title>
<path fill="none" stroke="black" d="M165.95,-122.11C165.95,-122.11 165.95,-140.99 165.95,-140.99"/>
<polygon fill="black" stroke="black" points="162.45,-140.99 165.95,-150.99 169.45,-140.99 162.45,-140.99"/>
</g>
<!-- ContractPartyInfosService  -->
<g id="node3" class="node">
<title>ContractPartyInfosService </title>
<polygon fill="#fb8072" stroke="black" points="317,-252 149,-252 149,-216 317,-216 317,-252"/>
<text text-anchor="middle" x="233" y="-229.8" font-family="Times,serif" font-size="14.00">ContractPartyInfosService </text>
</g>
<!-- ContractPartyInfosModule&#45;&gt;ContractPartyInfosService  -->
<g id="edge2" class="edge">
<title>ContractPartyInfosModule&#45;&gt;ContractPartyInfosService </title>
<path fill="none" stroke="black" stroke-dasharray="5,2" d="M233,-187.11C233,-187.11 233,-205.99 233,-205.99"/>
<polygon fill="black" stroke="black" points="229.5,-205.99 233,-215.99 236.5,-205.99 229.5,-205.99"/>
</g>
<!-- ContractPartyInfosService -->
<g id="node4" class="node">
<title>ContractPartyInfosService</title>
<ellipse fill="#fdb462" stroke="black" cx="319" cy="-104" rx="113.44" ry="18"/>
<text text-anchor="middle" x="319" y="-99.8" font-family="Times,serif" font-size="14.00">ContractPartyInfosService</text>
</g>
<!-- ContractPartyInfosService&#45;&gt;ContractPartyInfosModule -->
<g id="edge3" class="edge">
<title>ContractPartyInfosService&#45;&gt;ContractPartyInfosModule</title>
<path fill="none" stroke="black" d="M260.78,-119.73C260.78,-119.73 260.78,-140.65 260.78,-140.65"/>
<polygon fill="black" stroke="black" points="257.28,-140.65 260.78,-150.65 264.28,-140.65 257.28,-140.65"/>
</g>
</g>
</svg>
