<?xml version="1.0" encoding="UTF-8" standalone="no"?>
<!DOCTYPE svg PUBLIC "-//W3C//DTD SVG 1.1//EN"
 "http://www.w3.org/Graphics/SVG/1.1/DTD/svg11.dtd">
<!-- Generated by graphviz version 2.47.0 (20210316.0004)
 -->
<!-- Title: dependencies Pages: 1 -->
<svg width="808pt" height="284pt"
 viewBox="0.00 0.00 808.00 284.00" xmlns="http://www.w3.org/2000/svg" xmlns:xlink="http://www.w3.org/1999/xlink">
<g id="graph0" class="graph" transform="scale(1 1) rotate(0) translate(4 280)">
<title>dependencies</title>
<polygon fill="white" stroke="transparent" points="-4,4 -4,-280 804,-280 804,4 -4,4"/>
<text text-anchor="start" x="379.01" y="-42.4" font-family="Times-12" font-weight="bold" font-size="14.00">Legend</text>
<polygon fill="#ffffb3" stroke="transparent" points="166,-10 166,-30 186,-30 186,-10 166,-10"/>
<text text-anchor="start" x="189.63" y="-15.4" font-family="Times-12" font-size="14.00"> &#160;Declarations</text>
<polygon fill="#8dd3c7" stroke="transparent" points="279,-10 279,-30 299,-30 299,-10 279,-10"/>
<text text-anchor="start" x="302.73" y="-15.4" font-family="Times-12" font-size="14.00"> &#160;Module</text>
<polygon fill="#80b1d3" stroke="transparent" points="365,-10 365,-30 385,-30 385,-10 365,-10"/>
<text text-anchor="start" x="388.78" y="-15.4" font-family="Times-12" font-size="14.00"> &#160;Bootstrap</text>
<polygon fill="#fdb462" stroke="transparent" points="462,-10 462,-30 482,-30 482,-10 462,-10"/>
<text text-anchor="start" x="485.67" y="-15.4" font-family="Times-12" font-size="14.00"> &#160;Providers</text>
<polygon fill="#fb8072" stroke="transparent" points="558,-10 558,-30 578,-30 578,-10 558,-10"/>
<text text-anchor="start" x="581.73" y="-15.4" font-family="Times-12" font-size="14.00"> &#160;Exports</text>
<g id="clust1" class="cluster">
<title>cluster_QueueRedisModule</title>
<polygon fill="none" stroke="black" stroke-dasharray="1,5" points="8,-70 8,-268 792,-268 792,-70 8,-70"/>
</g>
<g id="clust3" class="cluster">
<title>cluster_QueueRedisModule_imports</title>
<polygon fill="none" stroke="black" points="386,-78 386,-130 488,-130 488,-78 386,-78"/>
</g>
<g id="clust6" class="cluster">
<title>cluster_QueueRedisModule_providers</title>
<polygon fill="none" stroke="black" points="188,-78 188,-130 378,-130 378,-78 188,-78"/>
</g>
<g id="clust4" class="cluster">
<title>cluster_QueueRedisModule_exports</title>
<polygon fill="none" stroke="black" points="16,-208 16,-260 784,-260 784,-208 16,-208"/>
</g>
<!-- MailModule -->
<g id="node1" class="node">
<title>MailModule</title>
<polygon fill="#8dd3c7" stroke="black" points="479.99,-122 476.99,-126 455.99,-126 452.99,-122 394.01,-122 394.01,-86 479.99,-86 479.99,-122"/>
<text text-anchor="middle" x="437" y="-99.8" font-family="Times,serif" font-size="14.00">MailModule</text>
</g>
<!-- QueueRedisModule -->
<g id="node2" class="node">
<title>QueueRedisModule</title>
<polygon fill="#8dd3c7" stroke="black" points="414.97,-187 411.97,-191 390.97,-191 387.97,-187 287.03,-187 287.03,-151 414.97,-151 414.97,-187"/>
<text text-anchor="middle" x="351" y="-164.8" font-family="Times,serif" font-size="14.00">QueueRedisModule</text>
</g>
<!-- MailModule&#45;&gt;QueueRedisModule -->
<g id="edge1" class="edge">
<title>MailModule&#45;&gt;QueueRedisModule</title>
<path fill="none" stroke="black" d="M404.5,-122.11C404.5,-122.11 404.5,-140.99 404.5,-140.99"/>
<polygon fill="black" stroke="black" points="401,-140.99 404.5,-150.99 408,-140.99 401,-140.99"/>
</g>
<!-- QueueProcessorSendInvitation  -->
<g id="node3" class="node">
<title>QueueProcessorSendInvitation </title>
<polygon fill="#fb8072" stroke="black" points="776.39,-252 583.61,-252 583.61,-216 776.39,-216 776.39,-252"/>
<text text-anchor="middle" x="680" y="-229.8" font-family="Times,serif" font-size="14.00">QueueProcessorSendInvitation </text>
</g>
<!-- QueueRedisModule&#45;&gt;QueueProcessorSendInvitation  -->
<g id="edge2" class="edge">
<title>QueueRedisModule&#45;&gt;QueueProcessorSendInvitation </title>
<path fill="none" stroke="black" stroke-dasharray="5,2" d="M415.22,-169C510.96,-169 680,-169 680,-169 680,-169 680,-205.89 680,-205.89"/>
<polygon fill="black" stroke="black" points="676.5,-205.89 680,-215.89 683.5,-205.89 676.5,-205.89"/>
</g>
<!-- QueueProcessorSendRequestSurvey  -->
<g id="node4" class="node">
<title>QueueProcessorSendRequestSurvey </title>
<polygon fill="#fb8072" stroke="black" points="565.71,-252 342.29,-252 342.29,-216 565.71,-216 565.71,-252"/>
<text text-anchor="middle" x="454" y="-229.8" font-family="Times,serif" font-size="14.00">QueueProcessorSendRequestSurvey </text>
</g>
<!-- QueueRedisModule&#45;&gt;QueueProcessorSendRequestSurvey  -->
<g id="edge3" class="edge">
<title>QueueRedisModule&#45;&gt;QueueProcessorSendRequestSurvey </title>
<path fill="none" stroke="black" stroke-dasharray="5,2" d="M378.69,-187.11C378.69,-187.11 378.69,-205.99 378.69,-205.99"/>
<polygon fill="black" stroke="black" points="375.19,-205.99 378.69,-215.99 382.19,-205.99 375.19,-205.99"/>
</g>
<!-- QueueProcessorService  -->
<g id="node5" class="node">
<title>QueueProcessorService </title>
<polygon fill="#fb8072" stroke="black" points="324.44,-252 171.56,-252 171.56,-216 324.44,-216 324.44,-252"/>
<text text-anchor="middle" x="248" y="-229.8" font-family="Times,serif" font-size="14.00">QueueProcessorService </text>
</g>
<!-- QueueRedisModule&#45;&gt;QueueProcessorService  -->
<g id="edge4" class="edge">
<title>QueueRedisModule&#45;&gt;QueueProcessorService </title>
<path fill="none" stroke="black" stroke-dasharray="5,2" d="M305.62,-187.11C305.62,-187.11 305.62,-205.99 305.62,-205.99"/>
<polygon fill="black" stroke="black" points="302.12,-205.99 305.62,-215.99 309.12,-205.99 302.12,-205.99"/>
</g>
<!-- QueueRedisService  -->
<g id="node6" class="node">
<title>QueueRedisService </title>
<polygon fill="#fb8072" stroke="black" points="153.9,-252 24.1,-252 24.1,-216 153.9,-216 153.9,-252"/>
<text text-anchor="middle" x="89" y="-229.8" font-family="Times,serif" font-size="14.00">QueueRedisService </text>
</g>
<!-- QueueRedisModule&#45;&gt;QueueRedisService  -->
<g id="edge5" class="edge">
<title>QueueRedisModule&#45;&gt;QueueRedisService </title>
<path fill="none" stroke="black" stroke-dasharray="5,2" d="M286.91,-169C209.34,-169 89,-169 89,-169 89,-169 89,-205.89 89,-205.89"/>
<polygon fill="black" stroke="black" points="85.5,-205.89 89,-215.89 92.5,-205.89 85.5,-205.89"/>
</g>
<!-- QueueRedisService -->
<g id="node7" class="node">
<title>QueueRedisService</title>
<ellipse fill="#fdb462" stroke="black" cx="283" cy="-104" rx="87.38" ry="18"/>
<text text-anchor="middle" x="283" y="-99.8" font-family="Times,serif" font-size="14.00">QueueRedisService</text>
</g>
<!-- QueueRedisService&#45;&gt;QueueRedisModule -->
<g id="edge6" class="edge">
<title>QueueRedisService&#45;&gt;QueueRedisModule</title>
<path fill="none" stroke="black" d="M328.6,-119.4C328.6,-119.4 328.6,-140.94 328.6,-140.94"/>
<polygon fill="black" stroke="black" points="325.1,-140.94 328.6,-150.94 332.1,-140.94 325.1,-140.94"/>
</g>
</g>
</svg>
