<?xml version="1.0" encoding="UTF-8" standalone="no"?>
<!DOCTYPE svg PUBLIC "-//W3C//DTD SVG 1.1//EN"
 "http://www.w3.org/Graphics/SVG/1.1/DTD/svg11.dtd">
<!-- Generated by graphviz version 2.47.0 (20210316.0004)
 -->
<!-- Title: dependencies Pages: 1 -->
<svg width="567pt" height="284pt"
 viewBox="0.00 0.00 567.00 284.00" xmlns="http://www.w3.org/2000/svg" xmlns:xlink="http://www.w3.org/1999/xlink">
<g id="graph0" class="graph" transform="scale(1 1) rotate(0) translate(4 280)">
<title>dependencies</title>
<polygon fill="white" stroke="transparent" points="-4,4 -4,-280 563,-280 563,4 -4,4"/>
<text text-anchor="start" x="258.51" y="-42.4" font-family="Times-12" font-weight="bold" font-size="14.00">Legend</text>
<polygon fill="#ffffb3" stroke="transparent" points="45.5,-10 45.5,-30 65.5,-30 65.5,-10 45.5,-10"/>
<text text-anchor="start" x="69.13" y="-15.4" font-family="Times-12" font-size="14.00"> &#160;Declarations</text>
<polygon fill="#8dd3c7" stroke="transparent" points="158.5,-10 158.5,-30 178.5,-30 178.5,-10 158.5,-10"/>
<text text-anchor="start" x="182.23" y="-15.4" font-family="Times-12" font-size="14.00"> &#160;Module</text>
<polygon fill="#80b1d3" stroke="transparent" points="244.5,-10 244.5,-30 264.5,-30 264.5,-10 244.5,-10"/>
<text text-anchor="start" x="268.28" y="-15.4" font-family="Times-12" font-size="14.00"> &#160;Bootstrap</text>
<polygon fill="#fdb462" stroke="transparent" points="341.5,-10 341.5,-30 361.5,-30 361.5,-10 341.5,-10"/>
<text text-anchor="start" x="365.17" y="-15.4" font-family="Times-12" font-size="14.00"> &#160;Providers</text>
<polygon fill="#fb8072" stroke="transparent" points="437.5,-10 437.5,-30 457.5,-30 457.5,-10 437.5,-10"/>
<text text-anchor="start" x="461.23" y="-15.4" font-family="Times-12" font-size="14.00"> &#160;Exports</text>
<g id="clust1" class="cluster">
<title>cluster_QueueRedisModule</title>
<polygon fill="none" stroke="black" stroke-dasharray="1,5" points="8,-70 8,-268 551,-268 551,-70 8,-70"/>
</g>
<g id="clust6" class="cluster">
<title>cluster_QueueRedisModule_providers</title>
<polygon fill="none" stroke="black" points="230,-78 230,-130 420,-130 420,-78 230,-78"/>
</g>
<g id="clust3" class="cluster">
<title>cluster_QueueRedisModule_imports</title>
<polygon fill="none" stroke="black" points="120,-78 120,-130 222,-130 222,-78 120,-78"/>
</g>
<g id="clust4" class="cluster">
<title>cluster_QueueRedisModule_exports</title>
<polygon fill="none" stroke="black" points="16,-208 16,-260 543,-260 543,-208 16,-208"/>
</g>
<!-- MailModule -->
<g id="node1" class="node">
<title>MailModule</title>
<polygon fill="#8dd3c7" stroke="black" points="213.99,-122 210.99,-126 189.99,-126 186.99,-122 128.01,-122 128.01,-86 213.99,-86 213.99,-122"/>
<text text-anchor="middle" x="171" y="-99.8" font-family="Times,serif" font-size="14.00">MailModule</text>
</g>
<!-- QueueRedisModule -->
<g id="node2" class="node">
<title>QueueRedisModule</title>
<polygon fill="#8dd3c7" stroke="black" points="311.97,-187 308.97,-191 287.97,-191 284.97,-187 184.03,-187 184.03,-151 311.97,-151 311.97,-187"/>
<text text-anchor="middle" x="248" y="-164.8" font-family="Times,serif" font-size="14.00">QueueRedisModule</text>
</g>
<!-- MailModule&#45;&gt;QueueRedisModule -->
<g id="edge1" class="edge">
<title>MailModule&#45;&gt;QueueRedisModule</title>
<path fill="none" stroke="black" d="M199,-122.11C199,-122.11 199,-140.99 199,-140.99"/>
<polygon fill="black" stroke="black" points="195.5,-140.99 199,-150.99 202.5,-140.99 195.5,-140.99"/>
</g>
<!-- QueueProcessorSendInvitation  -->
<g id="node3" class="node">
<title>QueueProcessorSendInvitation </title>
<polygon fill="#fb8072" stroke="black" points="535.39,-252 342.61,-252 342.61,-216 535.39,-216 535.39,-252"/>
<text text-anchor="middle" x="439" y="-229.8" font-family="Times,serif" font-size="14.00">QueueProcessorSendInvitation </text>
</g>
<!-- QueueRedisModule&#45;&gt;QueueProcessorSendInvitation  -->
<g id="edge2" class="edge">
<title>QueueRedisModule&#45;&gt;QueueProcessorSendInvitation </title>
<path fill="none" stroke="black" stroke-dasharray="5,2" d="M312.31,-169C344.78,-169 377.37,-169 377.37,-169 377.37,-169 377.37,-205.89 377.37,-205.89"/>
<polygon fill="black" stroke="black" points="373.87,-205.89 377.37,-215.89 380.87,-205.89 373.87,-205.89"/>
</g>
<!-- QueueProcessorService  -->
<g id="node4" class="node">
<title>QueueProcessorService </title>
<polygon fill="#fb8072" stroke="black" points="324.44,-252 171.56,-252 171.56,-216 324.44,-216 324.44,-252"/>
<text text-anchor="middle" x="248" y="-229.8" font-family="Times,serif" font-size="14.00">QueueProcessorService </text>
</g>
<!-- QueueRedisModule&#45;&gt;QueueProcessorService  -->
<g id="edge3" class="edge">
<title>QueueRedisModule&#45;&gt;QueueProcessorService </title>
<path fill="none" stroke="black" stroke-dasharray="5,2" d="M248,-187.11C248,-187.11 248,-205.99 248,-205.99"/>
<polygon fill="black" stroke="black" points="244.5,-205.99 248,-215.99 251.5,-205.99 244.5,-205.99"/>
</g>
<!-- QueueRedisService  -->
<g id="node5" class="node">
<title>QueueRedisService </title>
<polygon fill="#fb8072" stroke="black" points="153.9,-252 24.1,-252 24.1,-216 153.9,-216 153.9,-252"/>
<text text-anchor="middle" x="89" y="-229.8" font-family="Times,serif" font-size="14.00">QueueRedisService </text>
</g>
<!-- QueueRedisModule&#45;&gt;QueueRedisService  -->
<g id="edge4" class="edge">
<title>QueueRedisModule&#45;&gt;QueueRedisService </title>
<path fill="none" stroke="black" stroke-dasharray="5,2" d="M183.89,-169C161.1,-169 140.98,-169 140.98,-169 140.98,-169 140.98,-205.89 140.98,-205.89"/>
<polygon fill="black" stroke="black" points="137.48,-205.89 140.98,-215.89 144.48,-205.89 137.48,-205.89"/>
</g>
<!-- QueueRedisService -->
<g id="node6" class="node">
<title>QueueRedisService</title>
<ellipse fill="#fdb462" stroke="black" cx="325" cy="-104" rx="87.38" ry="18"/>
<text text-anchor="middle" x="325" y="-99.8" font-family="Times,serif" font-size="14.00">QueueRedisService</text>
</g>
<!-- QueueRedisService&#45;&gt;QueueRedisModule -->
<g id="edge5" class="edge">
<title>QueueRedisService&#45;&gt;QueueRedisModule</title>
<path fill="none" stroke="black" d="M274.9,-118.75C274.9,-118.75 274.9,-140.59 274.9,-140.59"/>
<polygon fill="black" stroke="black" points="271.4,-140.59 274.9,-150.59 278.4,-140.59 271.4,-140.59"/>
</g>
</g>
</svg>
