<?xml version="1.0" encoding="UTF-8" standalone="no"?>
<!DOCTYPE svg PUBLIC "-//W3C//DTD SVG 1.1//EN"
 "http://www.w3.org/Graphics/SVG/1.1/DTD/svg11.dtd">
<!-- Generated by graphviz version 2.47.0 (20210316.0004)
 -->
<!-- Title: dependencies Pages: 1 -->
<svg width="724pt" height="284pt"
 viewBox="0.00 0.00 724.00 284.00" xmlns="http://www.w3.org/2000/svg" xmlns:xlink="http://www.w3.org/1999/xlink">
<g id="graph0" class="graph" transform="scale(1 1) rotate(0) translate(4 280)">
<title>dependencies</title>
<polygon fill="white" stroke="transparent" points="-4,4 -4,-280 720,-280 720,4 -4,4"/>
<text text-anchor="start" x="337.01" y="-42.4" font-family="Times-12" font-weight="bold" font-size="14.00">Legend</text>
<polygon fill="#ffffb3" stroke="transparent" points="124,-10 124,-30 144,-30 144,-10 124,-10"/>
<text text-anchor="start" x="147.63" y="-15.4" font-family="Times-12" font-size="14.00"> &#160;Declarations</text>
<polygon fill="#8dd3c7" stroke="transparent" points="237,-10 237,-30 257,-30 257,-10 237,-10"/>
<text text-anchor="start" x="260.73" y="-15.4" font-family="Times-12" font-size="14.00"> &#160;Module</text>
<polygon fill="#80b1d3" stroke="transparent" points="323,-10 323,-30 343,-30 343,-10 323,-10"/>
<text text-anchor="start" x="346.78" y="-15.4" font-family="Times-12" font-size="14.00"> &#160;Bootstrap</text>
<polygon fill="#fdb462" stroke="transparent" points="420,-10 420,-30 440,-30 440,-10 420,-10"/>
<text text-anchor="start" x="443.67" y="-15.4" font-family="Times-12" font-size="14.00"> &#160;Providers</text>
<polygon fill="#fb8072" stroke="transparent" points="516,-10 516,-30 536,-30 536,-10 516,-10"/>
<text text-anchor="start" x="539.73" y="-15.4" font-family="Times-12" font-size="14.00"> &#160;Exports</text>
<g id="clust1" class="cluster">
<title>cluster_ParticipantsModule</title>
<polygon fill="none" stroke="black" stroke-dasharray="1,5" points="8,-70 8,-268 708,-268 708,-70 8,-70"/>
</g>
<g id="clust4" class="cluster">
<title>cluster_ParticipantsModule_exports</title>
<polygon fill="none" stroke="black" points="251,-208 251,-260 395,-260 395,-208 251,-208"/>
</g>
<g id="clust6" class="cluster">
<title>cluster_ParticipantsModule_providers</title>
<polygon fill="none" stroke="black" points="512,-78 512,-130 700,-130 700,-78 512,-78"/>
</g>
<g id="clust3" class="cluster">
<title>cluster_ParticipantsModule_imports</title>
<polygon fill="none" stroke="black" points="16,-78 16,-130 504,-130 504,-78 16,-78"/>
</g>
<!-- CommonModule -->
<g id="node1" class="node">
<title>CommonModule</title>
<polygon fill="#8dd3c7" stroke="black" points="495.67,-122 492.67,-126 471.67,-126 468.67,-122 384.33,-122 384.33,-86 495.67,-86 495.67,-122"/>
<text text-anchor="middle" x="440" y="-99.8" font-family="Times,serif" font-size="14.00">CommonModule</text>
</g>
<!-- ParticipantsModule -->
<g id="node5" class="node">
<title>ParticipantsModule</title>
<polygon fill="#8dd3c7" stroke="black" points="385.64,-187 382.64,-191 361.64,-191 358.64,-187 260.36,-187 260.36,-151 385.64,-151 385.64,-187"/>
<text text-anchor="middle" x="323" y="-164.8" font-family="Times,serif" font-size="14.00">ParticipantsModule</text>
</g>
<!-- CommonModule&#45;&gt;ParticipantsModule -->
<g id="edge1" class="edge">
<title>CommonModule&#45;&gt;ParticipantsModule</title>
<path fill="none" stroke="black" d="M384.11,-104C378.65,-104 375.08,-104 375.08,-104 375.08,-104 375.08,-140.89 375.08,-140.89"/>
<polygon fill="black" stroke="black" points="371.58,-140.89 375.08,-150.89 378.58,-140.89 371.58,-140.89"/>
</g>
<!-- MailModule -->
<g id="node2" class="node">
<title>MailModule</title>
<polygon fill="#8dd3c7" stroke="black" points="365.99,-122 362.99,-126 341.99,-126 338.99,-122 280.01,-122 280.01,-86 365.99,-86 365.99,-122"/>
<text text-anchor="middle" x="323" y="-99.8" font-family="Times,serif" font-size="14.00">MailModule</text>
</g>
<!-- MailModule&#45;&gt;ParticipantsModule -->
<g id="edge2" class="edge">
<title>MailModule&#45;&gt;ParticipantsModule</title>
<path fill="none" stroke="black" d="M323,-122.11C323,-122.11 323,-140.99 323,-140.99"/>
<polygon fill="black" stroke="black" points="319.5,-140.99 323,-150.99 326.5,-140.99 319.5,-140.99"/>
</g>
<!-- QueueRedisModule -->
<g id="node3" class="node">
<title>QueueRedisModule</title>
<polygon fill="#8dd3c7" stroke="black" points="261.97,-122 258.97,-126 237.97,-126 234.97,-122 134.03,-122 134.03,-86 261.97,-86 261.97,-122"/>
<text text-anchor="middle" x="198" y="-99.8" font-family="Times,serif" font-size="14.00">QueueRedisModule</text>
</g>
<!-- QueueRedisModule&#45;&gt;ParticipantsModule -->
<g id="edge3" class="edge">
<title>QueueRedisModule&#45;&gt;ParticipantsModule</title>
<path fill="none" stroke="black" d="M262.04,-104C267.5,-104 271,-104 271,-104 271,-104 271,-140.89 271,-140.89"/>
<polygon fill="black" stroke="black" points="267.5,-140.89 271,-150.89 274.5,-140.89 267.5,-140.89"/>
</g>
<!-- UsersModule -->
<g id="node4" class="node">
<title>UsersModule</title>
<polygon fill="#8dd3c7" stroke="black" points="115.92,-122 112.92,-126 91.92,-126 88.92,-122 24.08,-122 24.08,-86 115.92,-86 115.92,-122"/>
<text text-anchor="middle" x="70" y="-99.8" font-family="Times,serif" font-size="14.00">UsersModule</text>
</g>
<!-- UsersModule&#45;&gt;ParticipantsModule -->
<g id="edge4" class="edge">
<title>UsersModule&#45;&gt;ParticipantsModule</title>
<path fill="none" stroke="black" d="M70,-122.11C70,-141.34 70,-169 70,-169 70,-169 250.14,-169 250.14,-169"/>
<polygon fill="black" stroke="black" points="250.14,-172.5 260.14,-169 250.14,-165.5 250.14,-172.5"/>
</g>
<!-- ParticipantsService  -->
<g id="node6" class="node">
<title>ParticipantsService </title>
<polygon fill="#fb8072" stroke="black" points="386.57,-252 259.43,-252 259.43,-216 386.57,-216 386.57,-252"/>
<text text-anchor="middle" x="323" y="-229.8" font-family="Times,serif" font-size="14.00">ParticipantsService </text>
</g>
<!-- ParticipantsModule&#45;&gt;ParticipantsService  -->
<g id="edge5" class="edge">
<title>ParticipantsModule&#45;&gt;ParticipantsService </title>
<path fill="none" stroke="black" stroke-dasharray="5,2" d="M323,-187.11C323,-187.11 323,-205.99 323,-205.99"/>
<polygon fill="black" stroke="black" points="319.5,-205.99 323,-215.99 326.5,-205.99 319.5,-205.99"/>
</g>
<!-- ParticipantsService -->
<g id="node7" class="node">
<title>ParticipantsService</title>
<ellipse fill="#fdb462" stroke="black" cx="606" cy="-104" rx="85.66" ry="18"/>
<text text-anchor="middle" x="606" y="-99.8" font-family="Times,serif" font-size="14.00">ParticipantsService</text>
</g>
<!-- ParticipantsService&#45;&gt;ParticipantsModule -->
<g id="edge6" class="edge">
<title>ParticipantsService&#45;&gt;ParticipantsModule</title>
<path fill="none" stroke="black" d="M606,-122.11C606,-141.34 606,-169 606,-169 606,-169 395.81,-169 395.81,-169"/>
<polygon fill="black" stroke="black" points="395.81,-165.5 385.81,-169 395.81,-172.5 395.81,-165.5"/>
</g>
</g>
</svg>
