<?xml version="1.0" encoding="UTF-8" standalone="no"?>
<!DOCTYPE svg PUBLIC "-//W3C//DTD SVG 1.1//EN"
 "http://www.w3.org/Graphics/SVG/1.1/DTD/svg11.dtd">
<!-- Generated by graphviz version 2.47.0 (20210316.0004)
 -->
<!-- Title: dependencies Pages: 1 -->
<svg width="504pt" height="284pt"
 viewBox="0.00 0.00 504.00 284.00" xmlns="http://www.w3.org/2000/svg" xmlns:xlink="http://www.w3.org/1999/xlink">
<g id="graph0" class="graph" transform="scale(1 1) rotate(0) translate(4 280)">
<title>dependencies</title>
<polygon fill="white" stroke="transparent" points="-4,4 -4,-280 500,-280 500,4 -4,4"/>
<text text-anchor="start" x="227.01" y="-42.4" font-family="Times-12" font-weight="bold" font-size="14.00">Legend</text>
<polygon fill="#ffffb3" stroke="transparent" points="14,-10 14,-30 34,-30 34,-10 14,-10"/>
<text text-anchor="start" x="37.63" y="-15.4" font-family="Times-12" font-size="14.00"> &#160;Declarations</text>
<polygon fill="#8dd3c7" stroke="transparent" points="127,-10 127,-30 147,-30 147,-10 127,-10"/>
<text text-anchor="start" x="150.73" y="-15.4" font-family="Times-12" font-size="14.00"> &#160;Module</text>
<polygon fill="#80b1d3" stroke="transparent" points="213,-10 213,-30 233,-30 233,-10 213,-10"/>
<text text-anchor="start" x="236.78" y="-15.4" font-family="Times-12" font-size="14.00"> &#160;Bootstrap</text>
<polygon fill="#fdb462" stroke="transparent" points="310,-10 310,-30 330,-30 330,-10 310,-10"/>
<text text-anchor="start" x="333.67" y="-15.4" font-family="Times-12" font-size="14.00"> &#160;Providers</text>
<polygon fill="#fb8072" stroke="transparent" points="406,-10 406,-30 426,-30 426,-10 406,-10"/>
<text text-anchor="start" x="429.73" y="-15.4" font-family="Times-12" font-size="14.00"> &#160;Exports</text>
<g id="clust1" class="cluster">
<title>cluster_ContractAttributesModule</title>
<polygon fill="none" stroke="black" stroke-dasharray="1,5" points="35,-70 35,-268 461,-268 461,-70 35,-70"/>
</g>
<g id="clust4" class="cluster">
<title>cluster_ContractAttributesModule_exports</title>
<polygon fill="none" stroke="black" points="74,-208 74,-260 388,-260 388,-208 74,-208"/>
</g>
<g id="clust6" class="cluster">
<title>cluster_ContractAttributesModule_providers</title>
<polygon fill="none" stroke="black" points="43,-78 43,-130 453,-130 453,-78 43,-78"/>
</g>
<!-- CommonService  -->
<g id="node1" class="node">
<title>CommonService </title>
<polygon fill="#fb8072" stroke="black" points="379.6,-252 266.4,-252 266.4,-216 379.6,-216 379.6,-252"/>
<text text-anchor="middle" x="323" y="-229.8" font-family="Times,serif" font-size="14.00">CommonService </text>
</g>
<!-- ContractAttributesService  -->
<g id="node2" class="node">
<title>ContractAttributesService </title>
<polygon fill="#fb8072" stroke="black" points="247.67,-252 82.33,-252 82.33,-216 247.67,-216 247.67,-252"/>
<text text-anchor="middle" x="165" y="-229.8" font-family="Times,serif" font-size="14.00">ContractAttributesService </text>
</g>
<!-- ContractAttributesModule -->
<g id="node3" class="node">
<title>ContractAttributesModule</title>
<polygon fill="#8dd3c7" stroke="black" points="277.75,-187 274.75,-191 253.75,-191 250.75,-187 114.25,-187 114.25,-151 277.75,-151 277.75,-187"/>
<text text-anchor="middle" x="196" y="-164.8" font-family="Times,serif" font-size="14.00">ContractAttributesModule</text>
</g>
<!-- ContractAttributesModule&#45;&gt;CommonService  -->
<g id="edge1" class="edge">
<title>ContractAttributesModule&#45;&gt;CommonService </title>
<path fill="none" stroke="black" stroke-dasharray="5,2" d="M272.04,-187.11C272.04,-187.11 272.04,-205.99 272.04,-205.99"/>
<polygon fill="black" stroke="black" points="268.54,-205.99 272.04,-215.99 275.54,-205.99 268.54,-205.99"/>
</g>
<!-- ContractAttributesModule&#45;&gt;ContractAttributesService  -->
<g id="edge2" class="edge">
<title>ContractAttributesModule&#45;&gt;ContractAttributesService </title>
<path fill="none" stroke="black" stroke-dasharray="5,2" d="M180.98,-187.11C180.98,-187.11 180.98,-205.99 180.98,-205.99"/>
<polygon fill="black" stroke="black" points="177.48,-205.99 180.98,-215.99 184.48,-205.99 177.48,-205.99"/>
</g>
<!-- CommonService -->
<g id="node4" class="node">
<title>CommonService</title>
<ellipse fill="#fdb462" stroke="black" cx="369" cy="-104" rx="75.88" ry="18"/>
<text text-anchor="middle" x="369" y="-99.8" font-family="Times,serif" font-size="14.00">CommonService</text>
</g>
<!-- CommonService&#45;&gt;ContractAttributesModule -->
<g id="edge3" class="edge">
<title>CommonService&#45;&gt;ContractAttributesModule</title>
<path fill="none" stroke="black" d="M336.43,-120.4C336.43,-139.66 336.43,-169 336.43,-169 336.43,-169 288.09,-169 288.09,-169"/>
<polygon fill="black" stroke="black" points="288.09,-165.5 278.09,-169 288.09,-172.5 288.09,-165.5"/>
</g>
<!-- ContractAttributesService -->
<g id="node5" class="node">
<title>ContractAttributesService</title>
<ellipse fill="#fdb462" stroke="black" cx="163" cy="-104" rx="111.73" ry="18"/>
<text text-anchor="middle" x="163" y="-99.8" font-family="Times,serif" font-size="14.00">ContractAttributesService</text>
</g>
<!-- ContractAttributesService&#45;&gt;ContractAttributesModule -->
<g id="edge4" class="edge">
<title>ContractAttributesService&#45;&gt;ContractAttributesModule</title>
<path fill="none" stroke="black" d="M194.5,-121.42C194.5,-121.42 194.5,-140.62 194.5,-140.62"/>
<polygon fill="black" stroke="black" points="191,-140.62 194.5,-150.62 198,-140.62 191,-140.62"/>
</g>
</g>
</svg>
