<?xml version="1.0" encoding="UTF-8" standalone="no"?>
<!DOCTYPE svg PUBLIC "-//W3C//DTD SVG 1.1//EN"
 "http://www.w3.org/Graphics/SVG/1.1/DTD/svg11.dtd">
<!-- Generated by graphviz version 2.47.0 (20210316.0004)
 -->
<!-- Title: dependencies Pages: 1 -->
<svg width="584pt" height="284pt"
 viewBox="0.00 0.00 584.00 284.00" xmlns="http://www.w3.org/2000/svg" xmlns:xlink="http://www.w3.org/1999/xlink">
<g id="graph0" class="graph" transform="scale(1 1) rotate(0) translate(4 280)">
<title>dependencies</title>
<polygon fill="white" stroke="transparent" points="-4,4 -4,-280 580,-280 580,4 -4,4"/>
<text text-anchor="start" x="267.01" y="-42.4" font-family="Times-12" font-weight="bold" font-size="14.00">Legend</text>
<polygon fill="#ffffb3" stroke="transparent" points="54,-10 54,-30 74,-30 74,-10 54,-10"/>
<text text-anchor="start" x="77.63" y="-15.4" font-family="Times-12" font-size="14.00"> &#160;Declarations</text>
<polygon fill="#8dd3c7" stroke="transparent" points="167,-10 167,-30 187,-30 187,-10 167,-10"/>
<text text-anchor="start" x="190.73" y="-15.4" font-family="Times-12" font-size="14.00"> &#160;Module</text>
<polygon fill="#80b1d3" stroke="transparent" points="253,-10 253,-30 273,-30 273,-10 253,-10"/>
<text text-anchor="start" x="276.78" y="-15.4" font-family="Times-12" font-size="14.00"> &#160;Bootstrap</text>
<polygon fill="#fdb462" stroke="transparent" points="350,-10 350,-30 370,-30 370,-10 350,-10"/>
<text text-anchor="start" x="373.67" y="-15.4" font-family="Times-12" font-size="14.00"> &#160;Providers</text>
<polygon fill="#fb8072" stroke="transparent" points="446,-10 446,-30 466,-30 466,-10 446,-10"/>
<text text-anchor="start" x="469.73" y="-15.4" font-family="Times-12" font-size="14.00"> &#160;Exports</text>
<g id="clust1" class="cluster">
<title>cluster_InvitationsModule</title>
<polygon fill="none" stroke="black" stroke-dasharray="1,5" points="8,-70 8,-268 568,-268 568,-70 8,-70"/>
</g>
<g id="clust4" class="cluster">
<title>cluster_InvitationsModule_exports</title>
<polygon fill="none" stroke="black" points="251,-208 251,-260 389,-260 389,-208 251,-208"/>
</g>
<g id="clust3" class="cluster">
<title>cluster_InvitationsModule_imports</title>
<polygon fill="none" stroke="black" points="202,-78 202,-130 560,-130 560,-78 202,-78"/>
</g>
<g id="clust6" class="cluster">
<title>cluster_InvitationsModule_providers</title>
<polygon fill="none" stroke="black" points="16,-78 16,-130 194,-130 194,-78 16,-78"/>
</g>
<!-- MailModule -->
<g id="node1" class="node">
<title>MailModule</title>
<polygon fill="#8dd3c7" stroke="black" points="551.99,-122 548.99,-126 527.99,-126 524.99,-122 466.01,-122 466.01,-86 551.99,-86 551.99,-122"/>
<text text-anchor="middle" x="509" y="-99.8" font-family="Times,serif" font-size="14.00">MailModule</text>
</g>
<!-- InvitationsModule -->
<g id="node4" class="node">
<title>InvitationsModule</title>
<polygon fill="#8dd3c7" stroke="black" points="379.93,-187 376.93,-191 355.93,-191 352.93,-187 260.07,-187 260.07,-151 379.93,-151 379.93,-187"/>
<text text-anchor="middle" x="320" y="-164.8" font-family="Times,serif" font-size="14.00">InvitationsModule</text>
</g>
<!-- MailModule&#45;&gt;InvitationsModule -->
<g id="edge1" class="edge">
<title>MailModule&#45;&gt;InvitationsModule</title>
<path fill="none" stroke="black" d="M509,-122.11C509,-141.34 509,-169 509,-169 509,-169 389.8,-169 389.8,-169"/>
<polygon fill="black" stroke="black" points="389.8,-165.5 379.8,-169 389.8,-172.5 389.8,-165.5"/>
</g>
<!-- QueueRedisModule -->
<g id="node2" class="node">
<title>QueueRedisModule</title>
<polygon fill="#8dd3c7" stroke="black" points="447.97,-122 444.97,-126 423.97,-126 420.97,-122 320.03,-122 320.03,-86 447.97,-86 447.97,-122"/>
<text text-anchor="middle" x="384" y="-99.8" font-family="Times,serif" font-size="14.00">QueueRedisModule</text>
</g>
<!-- QueueRedisModule&#45;&gt;InvitationsModule -->
<g id="edge2" class="edge">
<title>QueueRedisModule&#45;&gt;InvitationsModule</title>
<path fill="none" stroke="black" d="M349.87,-122.11C349.87,-122.11 349.87,-140.99 349.87,-140.99"/>
<polygon fill="black" stroke="black" points="346.37,-140.99 349.87,-150.99 353.37,-140.99 346.37,-140.99"/>
</g>
<!-- UsersModule -->
<g id="node3" class="node">
<title>UsersModule</title>
<polygon fill="#8dd3c7" stroke="black" points="301.92,-122 298.92,-126 277.92,-126 274.92,-122 210.08,-122 210.08,-86 301.92,-86 301.92,-122"/>
<text text-anchor="middle" x="256" y="-99.8" font-family="Times,serif" font-size="14.00">UsersModule</text>
</g>
<!-- UsersModule&#45;&gt;InvitationsModule -->
<g id="edge3" class="edge">
<title>UsersModule&#45;&gt;InvitationsModule</title>
<path fill="none" stroke="black" d="M281,-122.11C281,-122.11 281,-140.99 281,-140.99"/>
<polygon fill="black" stroke="black" points="277.5,-140.99 281,-150.99 284.5,-140.99 277.5,-140.99"/>
</g>
<!-- InvitationsService  -->
<g id="node5" class="node">
<title>InvitationsService </title>
<polygon fill="#fb8072" stroke="black" points="380.86,-252 259.14,-252 259.14,-216 380.86,-216 380.86,-252"/>
<text text-anchor="middle" x="320" y="-229.8" font-family="Times,serif" font-size="14.00">InvitationsService </text>
</g>
<!-- InvitationsModule&#45;&gt;InvitationsService  -->
<g id="edge4" class="edge">
<title>InvitationsModule&#45;&gt;InvitationsService </title>
<path fill="none" stroke="black" stroke-dasharray="5,2" d="M320,-187.11C320,-187.11 320,-205.99 320,-205.99"/>
<polygon fill="black" stroke="black" points="316.5,-205.99 320,-215.99 323.5,-205.99 316.5,-205.99"/>
</g>
<!-- InvitationsService -->
<g id="node6" class="node">
<title>InvitationsService</title>
<ellipse fill="#fdb462" stroke="black" cx="105" cy="-104" rx="81.1" ry="18"/>
<text text-anchor="middle" x="105" y="-99.8" font-family="Times,serif" font-size="14.00">InvitationsService</text>
</g>
<!-- InvitationsService&#45;&gt;InvitationsModule -->
<g id="edge5" class="edge">
<title>InvitationsService&#45;&gt;InvitationsModule</title>
<path fill="none" stroke="black" d="M105,-122.11C105,-141.34 105,-169 105,-169 105,-169 250.11,-169 250.11,-169"/>
<polygon fill="black" stroke="black" points="250.11,-172.5 260.11,-169 250.11,-165.5 250.11,-172.5"/>
</g>
</g>
</svg>
