<?xml version="1.0" encoding="UTF-8" standalone="no"?>
<!DOCTYPE svg PUBLIC "-//W3C//DTD SVG 1.1//EN"
 "http://www.w3.org/Graphics/SVG/1.1/DTD/svg11.dtd">
<!-- Generated by graphviz version 2.47.0 (20210316.0004)
 -->
<!-- Title: dependencies Pages: 1 -->
<svg width="836pt" height="284pt"
 viewBox="0.00 0.00 836.00 284.00" xmlns="http://www.w3.org/2000/svg" xmlns:xlink="http://www.w3.org/1999/xlink">
<g id="graph0" class="graph" transform="scale(1 1) rotate(0) translate(4 280)">
<title>dependencies</title>
<polygon fill="white" stroke="transparent" points="-4,4 -4,-280 832,-280 832,4 -4,4"/>
<text text-anchor="start" x="393.01" y="-42.4" font-family="Times-12" font-weight="bold" font-size="14.00">Legend</text>
<polygon fill="#ffffb3" stroke="transparent" points="180,-10 180,-30 200,-30 200,-10 180,-10"/>
<text text-anchor="start" x="203.63" y="-15.4" font-family="Times-12" font-size="14.00"> &#160;Declarations</text>
<polygon fill="#8dd3c7" stroke="transparent" points="293,-10 293,-30 313,-30 313,-10 293,-10"/>
<text text-anchor="start" x="316.73" y="-15.4" font-family="Times-12" font-size="14.00"> &#160;Module</text>
<polygon fill="#80b1d3" stroke="transparent" points="379,-10 379,-30 399,-30 399,-10 379,-10"/>
<text text-anchor="start" x="402.78" y="-15.4" font-family="Times-12" font-size="14.00"> &#160;Bootstrap</text>
<polygon fill="#fdb462" stroke="transparent" points="476,-10 476,-30 496,-30 496,-10 476,-10"/>
<text text-anchor="start" x="499.67" y="-15.4" font-family="Times-12" font-size="14.00"> &#160;Providers</text>
<polygon fill="#fb8072" stroke="transparent" points="572,-10 572,-30 592,-30 592,-10 572,-10"/>
<text text-anchor="start" x="595.73" y="-15.4" font-family="Times-12" font-size="14.00"> &#160;Exports</text>
<g id="clust1" class="cluster">
<title>cluster_OrdersModule</title>
<polygon fill="none" stroke="black" stroke-dasharray="1,5" points="8,-70 8,-268 820,-268 820,-70 8,-70"/>
</g>
<g id="clust4" class="cluster">
<title>cluster_OrdersModule_exports</title>
<polygon fill="none" stroke="black" points="338,-208 338,-260 454,-260 454,-208 338,-208"/>
</g>
<g id="clust6" class="cluster">
<title>cluster_OrdersModule_providers</title>
<polygon fill="none" stroke="black" points="664,-78 664,-130 812,-130 812,-78 664,-78"/>
</g>
<g id="clust3" class="cluster">
<title>cluster_OrdersModule_imports</title>
<polygon fill="none" stroke="black" points="16,-78 16,-130 656,-130 656,-78 16,-78"/>
</g>
<!-- CommonModule -->
<g id="node1" class="node">
<title>CommonModule</title>
<polygon fill="#8dd3c7" stroke="black" points="647.67,-122 644.67,-126 623.67,-126 620.67,-122 536.33,-122 536.33,-86 647.67,-86 647.67,-122"/>
<text text-anchor="middle" x="592" y="-99.8" font-family="Times,serif" font-size="14.00">CommonModule</text>
</g>
<!-- OrdersModule -->
<g id="node6" class="node">
<title>OrdersModule</title>
<polygon fill="#8dd3c7" stroke="black" points="444.64,-187 441.64,-191 420.64,-191 417.64,-187 347.36,-187 347.36,-151 444.64,-151 444.64,-187"/>
<text text-anchor="middle" x="396" y="-164.8" font-family="Times,serif" font-size="14.00">OrdersModule</text>
</g>
<!-- CommonModule&#45;&gt;OrdersModule -->
<g id="edge1" class="edge">
<title>CommonModule&#45;&gt;OrdersModule</title>
<path fill="none" stroke="black" d="M592,-122.02C592,-139.37 592,-163 592,-163 592,-163 454.7,-163 454.7,-163"/>
<polygon fill="black" stroke="black" points="454.7,-159.5 444.7,-163 454.7,-166.5 454.7,-159.5"/>
</g>
<!-- ProductsModule -->
<g id="node2" class="node">
<title>ProductsModule</title>
<polygon fill="#8dd3c7" stroke="black" points="518.04,-122 515.04,-126 494.04,-126 491.04,-122 409.96,-122 409.96,-86 518.04,-86 518.04,-122"/>
<text text-anchor="middle" x="464" y="-99.8" font-family="Times,serif" font-size="14.00">ProductsModule</text>
</g>
<!-- ProductsModule&#45;&gt;OrdersModule -->
<g id="edge2" class="edge">
<title>ProductsModule&#45;&gt;OrdersModule</title>
<path fill="none" stroke="black" d="M427.27,-122.11C427.27,-122.11 427.27,-140.99 427.27,-140.99"/>
<polygon fill="black" stroke="black" points="423.77,-140.99 427.27,-150.99 430.77,-140.99 423.77,-140.99"/>
</g>
<!-- QueueRedisModule -->
<g id="node3" class="node">
<title>QueueRedisModule</title>
<polygon fill="#8dd3c7" stroke="black" points="391.97,-122 388.97,-126 367.97,-126 364.97,-122 264.03,-122 264.03,-86 391.97,-86 391.97,-122"/>
<text text-anchor="middle" x="328" y="-99.8" font-family="Times,serif" font-size="14.00">QueueRedisModule</text>
</g>
<!-- QueueRedisModule&#45;&gt;OrdersModule -->
<g id="edge3" class="edge">
<title>QueueRedisModule&#45;&gt;OrdersModule</title>
<path fill="none" stroke="black" d="M369.58,-122.11C369.58,-122.11 369.58,-140.99 369.58,-140.99"/>
<polygon fill="black" stroke="black" points="366.08,-140.99 369.58,-150.99 373.08,-140.99 366.08,-140.99"/>
</g>
<!-- SuppliersModule -->
<g id="node4" class="node">
<title>SuppliersModule</title>
<polygon fill="#8dd3c7" stroke="black" points="246.43,-122 243.43,-126 222.43,-126 219.43,-122 133.57,-122 133.57,-86 246.43,-86 246.43,-122"/>
<text text-anchor="middle" x="190" y="-99.8" font-family="Times,serif" font-size="14.00">SuppliersModule</text>
</g>
<!-- SuppliersModule&#45;&gt;OrdersModule -->
<g id="edge4" class="edge">
<title>SuppliersModule&#45;&gt;OrdersModule</title>
<path fill="none" stroke="black" d="M190,-122.02C190,-139.37 190,-163 190,-163 190,-163 337.18,-163 337.18,-163"/>
<polygon fill="black" stroke="black" points="337.18,-166.5 347.18,-163 337.18,-159.5 337.18,-166.5"/>
</g>
<!-- UsersModule -->
<g id="node5" class="node">
<title>UsersModule</title>
<polygon fill="#8dd3c7" stroke="black" points="115.92,-122 112.92,-126 91.92,-126 88.92,-122 24.08,-122 24.08,-86 115.92,-86 115.92,-122"/>
<text text-anchor="middle" x="70" y="-99.8" font-family="Times,serif" font-size="14.00">UsersModule</text>
</g>
<!-- UsersModule&#45;&gt;OrdersModule -->
<g id="edge5" class="edge">
<title>UsersModule&#45;&gt;OrdersModule</title>
<path fill="none" stroke="black" d="M70,-122.28C70,-143.32 70,-175 70,-175 70,-175 337.19,-175 337.19,-175"/>
<polygon fill="black" stroke="black" points="337.19,-178.5 347.19,-175 337.19,-171.5 337.19,-178.5"/>
</g>
<!-- OrdersService  -->
<g id="node7" class="node">
<title>OrdersService </title>
<polygon fill="#fb8072" stroke="black" points="445.57,-252 346.43,-252 346.43,-216 445.57,-216 445.57,-252"/>
<text text-anchor="middle" x="396" y="-229.8" font-family="Times,serif" font-size="14.00">OrdersService </text>
</g>
<!-- OrdersModule&#45;&gt;OrdersService  -->
<g id="edge6" class="edge">
<title>OrdersModule&#45;&gt;OrdersService </title>
<path fill="none" stroke="black" stroke-dasharray="5,2" d="M396,-187.11C396,-187.11 396,-205.99 396,-205.99"/>
<polygon fill="black" stroke="black" points="392.5,-205.99 396,-215.99 399.5,-205.99 392.5,-205.99"/>
</g>
<!-- OrdersService -->
<g id="node8" class="node">
<title>OrdersService</title>
<ellipse fill="#fdb462" stroke="black" cx="738" cy="-104" rx="66.03" ry="18"/>
<text text-anchor="middle" x="738" y="-99.8" font-family="Times,serif" font-size="14.00">OrdersService</text>
</g>
<!-- OrdersService&#45;&gt;OrdersModule -->
<g id="edge7" class="edge">
<title>OrdersService&#45;&gt;OrdersModule</title>
<path fill="none" stroke="black" d="M738,-122.28C738,-143.32 738,-175 738,-175 738,-175 455,-175 455,-175"/>
<polygon fill="black" stroke="black" points="455,-171.5 445,-175 455,-178.5 455,-171.5"/>
</g>
</g>
</svg>
