<?xml version="1.0" encoding="UTF-8" standalone="no"?>
<!DOCTYPE svg PUBLIC "-//W3C//DTD SVG 1.1//EN"
 "http://www.w3.org/Graphics/SVG/1.1/DTD/svg11.dtd">
<!-- Generated by graphviz version 2.47.0 (20210316.0004)
 -->
<!-- Title: dependencies Pages: 1 -->
<svg width="504pt" height="284pt"
 viewBox="0.00 0.00 504.00 284.00" xmlns="http://www.w3.org/2000/svg" xmlns:xlink="http://www.w3.org/1999/xlink">
<g id="graph0" class="graph" transform="scale(1 1) rotate(0) translate(4 280)">
<title>dependencies</title>
<polygon fill="white" stroke="transparent" points="-4,4 -4,-280 500,-280 500,4 -4,4"/>
<text text-anchor="start" x="227.01" y="-42.4" font-family="Times-12" font-weight="bold" font-size="14.00">Legend</text>
<polygon fill="#ffffb3" stroke="transparent" points="14,-10 14,-30 34,-30 34,-10 14,-10"/>
<text text-anchor="start" x="37.63" y="-15.4" font-family="Times-12" font-size="14.00"> &#160;Declarations</text>
<polygon fill="#8dd3c7" stroke="transparent" points="127,-10 127,-30 147,-30 147,-10 127,-10"/>
<text text-anchor="start" x="150.73" y="-15.4" font-family="Times-12" font-size="14.00"> &#160;Module</text>
<polygon fill="#80b1d3" stroke="transparent" points="213,-10 213,-30 233,-30 233,-10 213,-10"/>
<text text-anchor="start" x="236.78" y="-15.4" font-family="Times-12" font-size="14.00"> &#160;Bootstrap</text>
<polygon fill="#fdb462" stroke="transparent" points="310,-10 310,-30 330,-30 330,-10 310,-10"/>
<text text-anchor="start" x="333.67" y="-15.4" font-family="Times-12" font-size="14.00"> &#160;Providers</text>
<polygon fill="#fb8072" stroke="transparent" points="406,-10 406,-30 426,-30 426,-10 406,-10"/>
<text text-anchor="start" x="429.73" y="-15.4" font-family="Times-12" font-size="14.00"> &#160;Exports</text>
<g id="clust1" class="cluster">
<title>cluster_PartyInfosModule</title>
<polygon fill="none" stroke="black" stroke-dasharray="1,5" points="91,-70 91,-268 405,-268 405,-70 91,-70"/>
</g>
<g id="clust4" class="cluster">
<title>cluster_PartyInfosModule_exports</title>
<polygon fill="none" stroke="black" points="190,-208 190,-260 326,-260 326,-208 190,-208"/>
</g>
<g id="clust3" class="cluster">
<title>cluster_PartyInfosModule_imports</title>
<polygon fill="none" stroke="black" points="283,-78 283,-130 397,-130 397,-78 283,-78"/>
</g>
<g id="clust6" class="cluster">
<title>cluster_PartyInfosModule_providers</title>
<polygon fill="none" stroke="black" points="99,-78 99,-130 275,-130 275,-78 99,-78"/>
</g>
<!-- PartiesModule -->
<g id="node1" class="node">
<title>PartiesModule</title>
<polygon fill="#8dd3c7" stroke="black" points="388.65,-122 385.65,-126 364.65,-126 361.65,-122 291.35,-122 291.35,-86 388.65,-86 388.65,-122"/>
<text text-anchor="middle" x="340" y="-99.8" font-family="Times,serif" font-size="14.00">PartiesModule</text>
</g>
<!-- PartyInfosModule -->
<g id="node2" class="node">
<title>PartyInfosModule</title>
<polygon fill="#8dd3c7" stroke="black" points="316.86,-187 313.86,-191 292.86,-191 289.86,-187 199.14,-187 199.14,-151 316.86,-151 316.86,-187"/>
<text text-anchor="middle" x="258" y="-164.8" font-family="Times,serif" font-size="14.00">PartyInfosModule</text>
</g>
<!-- PartiesModule&#45;&gt;PartyInfosModule -->
<g id="edge1" class="edge">
<title>PartiesModule&#45;&gt;PartyInfosModule</title>
<path fill="none" stroke="black" d="M304.05,-122.11C304.05,-122.11 304.05,-140.99 304.05,-140.99"/>
<polygon fill="black" stroke="black" points="300.55,-140.99 304.05,-150.99 307.55,-140.99 300.55,-140.99"/>
</g>
<!-- PartyInfosService  -->
<g id="node3" class="node">
<title>PartyInfosService </title>
<polygon fill="#fb8072" stroke="black" points="317.79,-252 198.21,-252 198.21,-216 317.79,-216 317.79,-252"/>
<text text-anchor="middle" x="258" y="-229.8" font-family="Times,serif" font-size="14.00">PartyInfosService </text>
</g>
<!-- PartyInfosModule&#45;&gt;PartyInfosService  -->
<g id="edge2" class="edge">
<title>PartyInfosModule&#45;&gt;PartyInfosService </title>
<path fill="none" stroke="black" stroke-dasharray="5,2" d="M258,-187.11C258,-187.11 258,-205.99 258,-205.99"/>
<polygon fill="black" stroke="black" points="254.5,-205.99 258,-215.99 261.5,-205.99 254.5,-205.99"/>
</g>
<!-- PartyInfosService -->
<g id="node4" class="node">
<title>PartyInfosService</title>
<ellipse fill="#fdb462" stroke="black" cx="187" cy="-104" rx="80.43" ry="18"/>
<text text-anchor="middle" x="187" y="-99.8" font-family="Times,serif" font-size="14.00">PartyInfosService</text>
</g>
<!-- PartyInfosService&#45;&gt;PartyInfosModule -->
<g id="edge3" class="edge">
<title>PartyInfosService&#45;&gt;PartyInfosModule</title>
<path fill="none" stroke="black" d="M233.14,-118.75C233.14,-118.75 233.14,-140.59 233.14,-140.59"/>
<polygon fill="black" stroke="black" points="229.64,-140.59 233.14,-150.59 236.64,-140.59 229.64,-140.59"/>
</g>
</g>
</svg>
