<?xml version="1.0" encoding="UTF-8" standalone="no"?>
<!DOCTYPE svg PUBLIC "-//W3C//DTD SVG 1.1//EN"
 "http://www.w3.org/Graphics/SVG/1.1/DTD/svg11.dtd">
<!-- Generated by graphviz version 2.47.0 (20210316.0004)
 -->
<!-- Title: dependencies Pages: 1 -->
<svg width="1907pt" height="211pt"
 viewBox="0.00 0.00 1907.00 211.00" xmlns="http://www.w3.org/2000/svg" xmlns:xlink="http://www.w3.org/1999/xlink">
<g id="graph0" class="graph" transform="scale(1 1) rotate(0) translate(4 207)">
<title>dependencies</title>
<polygon fill="white" stroke="transparent" points="-4,4 -4,-207 1903,-207 1903,4 -4,4"/>
<text text-anchor="start" x="928.51" y="-42.4" font-family="Times-12" font-weight="bold" font-size="14.00">Legend</text>
<polygon fill="#ffffb3" stroke="transparent" points="715.5,-10 715.5,-30 735.5,-30 735.5,-10 715.5,-10"/>
<text text-anchor="start" x="739.13" y="-15.4" font-family="Times-12" font-size="14.00"> &#160;Declarations</text>
<polygon fill="#8dd3c7" stroke="transparent" points="828.5,-10 828.5,-30 848.5,-30 848.5,-10 828.5,-10"/>
<text text-anchor="start" x="852.23" y="-15.4" font-family="Times-12" font-size="14.00"> &#160;Module</text>
<polygon fill="#80b1d3" stroke="transparent" points="914.5,-10 914.5,-30 934.5,-30 934.5,-10 914.5,-10"/>
<text text-anchor="start" x="938.28" y="-15.4" font-family="Times-12" font-size="14.00"> &#160;Bootstrap</text>
<polygon fill="#fdb462" stroke="transparent" points="1011.5,-10 1011.5,-30 1031.5,-30 1031.5,-10 1011.5,-10"/>
<text text-anchor="start" x="1035.17" y="-15.4" font-family="Times-12" font-size="14.00"> &#160;Providers</text>
<polygon fill="#fb8072" stroke="transparent" points="1107.5,-10 1107.5,-30 1127.5,-30 1127.5,-10 1107.5,-10"/>
<text text-anchor="start" x="1131.23" y="-15.4" font-family="Times-12" font-size="14.00"> &#160;Exports</text>
<g id="clust1" class="cluster">
<title>cluster_AppModule</title>
<polygon fill="none" stroke="black" stroke-dasharray="1,5" points="8,-70 8,-195 1891,-195 1891,-70 8,-70"/>
</g>
<g id="clust6" class="cluster">
<title>cluster_AppModule_providers</title>
<polygon fill="none" stroke="black" points="1753,-78 1753,-130 1883,-130 1883,-78 1753,-78"/>
</g>
<g id="clust3" class="cluster">
<title>cluster_AppModule_imports</title>
<polygon fill="none" stroke="black" points="16,-78 16,-130 1745,-130 1745,-78 16,-78"/>
</g>
<!-- AuthModule -->
<g id="node1" class="node">
<title>AuthModule</title>
<polygon fill="#8dd3c7" stroke="black" points="1736.55,-122 1733.55,-126 1712.55,-126 1709.55,-122 1649.45,-122 1649.45,-86 1736.55,-86 1736.55,-122"/>
<text text-anchor="middle" x="1693" y="-99.8" font-family="Times,serif" font-size="14.00">AuthModule</text>
</g>
<!-- AppModule -->
<g id="node13" class="node">
<title>AppModule</title>
<polygon fill="#8dd3c7" stroke="black" points="901.66,-187 898.66,-191 877.66,-191 874.66,-187 818.34,-187 818.34,-151 901.66,-151 901.66,-187"/>
<text text-anchor="middle" x="860" y="-164.8" font-family="Times,serif" font-size="14.00">AppModule</text>
</g>
<!-- AuthModule&#45;&gt;AppModule -->
<g id="edge1" class="edge">
<title>AuthModule&#45;&gt;AppModule</title>
<path fill="none" stroke="black" d="M1693,-122.04C1693,-143.66 1693,-177 1693,-177 1693,-177 911.88,-177 911.88,-177"/>
<polygon fill="black" stroke="black" points="911.88,-173.5 901.88,-177 911.88,-180.5 911.88,-173.5"/>
</g>
<!-- ContractAttributeValuesModule -->
<g id="node2" class="node">
<title>ContractAttributeValuesModule</title>
<polygon fill="#8dd3c7" stroke="black" points="1631.67,-122 1628.67,-126 1607.67,-126 1604.67,-122 1434.33,-122 1434.33,-86 1631.67,-86 1631.67,-122"/>
<text text-anchor="middle" x="1533" y="-99.8" font-family="Times,serif" font-size="14.00">ContractAttributeValuesModule</text>
</g>
<!-- ContractAttributeValuesModule&#45;&gt;AppModule -->
<g id="edge2" class="edge">
<title>ContractAttributeValuesModule&#45;&gt;AppModule</title>
<path fill="none" stroke="black" d="M1533,-122.22C1533,-142.37 1533,-172 1533,-172 1533,-172 911.84,-172 911.84,-172"/>
<polygon fill="black" stroke="black" points="911.84,-168.5 901.84,-172 911.84,-175.5 911.84,-168.5"/>
</g>
<!-- ContractAttributesModule -->
<g id="node3" class="node">
<title>ContractAttributesModule</title>
<polygon fill="#8dd3c7" stroke="black" points="1416.75,-122 1413.75,-126 1392.75,-126 1389.75,-122 1253.25,-122 1253.25,-86 1416.75,-86 1416.75,-122"/>
<text text-anchor="middle" x="1335" y="-99.8" font-family="Times,serif" font-size="14.00">ContractAttributesModule</text>
</g>
<!-- ContractAttributesModule&#45;&gt;AppModule -->
<g id="edge3" class="edge">
<title>ContractAttributesModule&#45;&gt;AppModule</title>
<path fill="none" stroke="black" d="M1335,-122.22C1335,-140.83 1335,-167 1335,-167 1335,-167 911.74,-167 911.74,-167"/>
<polygon fill="black" stroke="black" points="911.74,-163.5 901.74,-167 911.74,-170.5 911.74,-163.5"/>
</g>
<!-- ContractPartyInfosModule -->
<g id="node4" class="node">
<title>ContractPartyInfosModule</title>
<polygon fill="#8dd3c7" stroke="black" points="1235.07,-122 1232.07,-126 1211.07,-126 1208.07,-122 1068.93,-122 1068.93,-86 1235.07,-86 1235.07,-122"/>
<text text-anchor="middle" x="1152" y="-99.8" font-family="Times,serif" font-size="14.00">ContractPartyInfosModule</text>
</g>
<!-- ContractPartyInfosModule&#45;&gt;AppModule -->
<g id="edge4" class="edge">
<title>ContractPartyInfosModule&#45;&gt;AppModule</title>
<path fill="none" stroke="black" d="M1152,-122.03C1152,-139.06 1152,-162 1152,-162 1152,-162 911.84,-162 911.84,-162"/>
<polygon fill="black" stroke="black" points="911.84,-158.5 901.84,-162 911.84,-165.5 911.84,-158.5"/>
</g>
<!-- ContractsModule -->
<g id="node5" class="node">
<title>ContractsModule</title>
<polygon fill="#8dd3c7" stroke="black" points="1050.7,-122 1047.7,-126 1026.7,-126 1023.7,-122 937.3,-122 937.3,-86 1050.7,-86 1050.7,-122"/>
<text text-anchor="middle" x="994" y="-99.8" font-family="Times,serif" font-size="14.00">ContractsModule</text>
</g>
<!-- ContractsModule&#45;&gt;AppModule -->
<g id="edge5" class="edge">
<title>ContractsModule&#45;&gt;AppModule</title>
<path fill="none" stroke="black" d="M994,-122.24C994,-137.57 994,-157 994,-157 994,-157 911.66,-157 911.66,-157"/>
<polygon fill="black" stroke="black" points="911.66,-153.5 901.66,-157 911.66,-160.5 911.66,-153.5"/>
</g>
<!-- InvitationsModule -->
<g id="node6" class="node">
<title>InvitationsModule</title>
<polygon fill="#8dd3c7" stroke="black" points="919.93,-122 916.93,-126 895.93,-126 892.93,-122 800.07,-122 800.07,-86 919.93,-86 919.93,-122"/>
<text text-anchor="middle" x="860" y="-99.8" font-family="Times,serif" font-size="14.00">InvitationsModule</text>
</g>
<!-- InvitationsModule&#45;&gt;AppModule -->
<g id="edge6" class="edge">
<title>InvitationsModule&#45;&gt;AppModule</title>
<path fill="none" stroke="black" d="M860,-122.11C860,-122.11 860,-140.99 860,-140.99"/>
<polygon fill="black" stroke="black" points="856.5,-140.99 860,-150.99 863.5,-140.99 856.5,-140.99"/>
</g>
<!-- MailModule -->
<g id="node7" class="node">
<title>MailModule</title>
<polygon fill="#8dd3c7" stroke="black" points="781.99,-122 778.99,-126 757.99,-126 754.99,-122 696.01,-122 696.01,-86 781.99,-86 781.99,-122"/>
<text text-anchor="middle" x="739" y="-99.8" font-family="Times,serif" font-size="14.00">MailModule</text>
</g>
<!-- MailModule&#45;&gt;AppModule -->
<g id="edge7" class="edge">
<title>MailModule&#45;&gt;AppModule</title>
<path fill="none" stroke="black" d="M739,-122.24C739,-137.57 739,-157 739,-157 739,-157 808.02,-157 808.02,-157"/>
<polygon fill="black" stroke="black" points="808.02,-160.5 818.02,-157 808.02,-153.5 808.02,-160.5"/>
</g>
<!-- PartiesModule -->
<g id="node8" class="node">
<title>PartiesModule</title>
<polygon fill="#8dd3c7" stroke="black" points="677.65,-122 674.65,-126 653.65,-126 650.65,-122 580.35,-122 580.35,-86 677.65,-86 677.65,-122"/>
<text text-anchor="middle" x="629" y="-99.8" font-family="Times,serif" font-size="14.00">PartiesModule</text>
</g>
<!-- PartiesModule&#45;&gt;AppModule -->
<g id="edge8" class="edge">
<title>PartiesModule&#45;&gt;AppModule</title>
<path fill="none" stroke="black" d="M629,-122.03C629,-139.06 629,-162 629,-162 629,-162 808.17,-162 808.17,-162"/>
<polygon fill="black" stroke="black" points="808.17,-165.5 818.17,-162 808.17,-158.5 808.17,-165.5"/>
</g>
<!-- PartyInfosModule -->
<g id="node9" class="node">
<title>PartyInfosModule</title>
<polygon fill="#8dd3c7" stroke="black" points="561.86,-122 558.86,-126 537.86,-126 534.86,-122 444.14,-122 444.14,-86 561.86,-86 561.86,-122"/>
<text text-anchor="middle" x="503" y="-99.8" font-family="Times,serif" font-size="14.00">PartyInfosModule</text>
</g>
<!-- PartyInfosModule&#45;&gt;AppModule -->
<g id="edge9" class="edge">
<title>PartyInfosModule&#45;&gt;AppModule</title>
<path fill="none" stroke="black" d="M503,-122.22C503,-140.83 503,-167 503,-167 503,-167 808,-167 808,-167"/>
<polygon fill="black" stroke="black" points="808,-170.5 818,-167 808,-163.5 808,-170.5"/>
</g>
<!-- QueueRedisModule -->
<g id="node10" class="node">
<title>QueueRedisModule</title>
<polygon fill="#8dd3c7" stroke="black" points="425.97,-122 422.97,-126 401.97,-126 398.97,-122 298.03,-122 298.03,-86 425.97,-86 425.97,-122"/>
<text text-anchor="middle" x="362" y="-99.8" font-family="Times,serif" font-size="14.00">QueueRedisModule</text>
</g>
<!-- QueueRedisModule&#45;&gt;AppModule -->
<g id="edge10" class="edge">
<title>QueueRedisModule&#45;&gt;AppModule</title>
<path fill="none" stroke="black" d="M362,-122.22C362,-142.37 362,-172 362,-172 362,-172 807.97,-172 807.97,-172"/>
<polygon fill="black" stroke="black" points="807.97,-175.5 817.97,-172 807.97,-168.5 807.97,-175.5"/>
</g>
<!-- SmartContractsModule -->
<g id="node11" class="node">
<title>SmartContractsModule</title>
<polygon fill="#8dd3c7" stroke="black" points="280.14,-122 277.14,-126 256.14,-126 253.14,-122 133.86,-122 133.86,-86 280.14,-86 280.14,-122"/>
<text text-anchor="middle" x="207" y="-99.8" font-family="Times,serif" font-size="14.00">SmartContractsModule</text>
</g>
<!-- SmartContractsModule&#45;&gt;AppModule -->
<g id="edge11" class="edge">
<title>SmartContractsModule&#45;&gt;AppModule</title>
<path fill="none" stroke="black" d="M207,-122.04C207,-143.66 207,-177 207,-177 207,-177 808.16,-177 808.16,-177"/>
<polygon fill="black" stroke="black" points="808.16,-180.5 818.16,-177 808.16,-173.5 808.16,-180.5"/>
</g>
<!-- UsersModule -->
<g id="node12" class="node">
<title>UsersModule</title>
<polygon fill="#8dd3c7" stroke="black" points="115.92,-122 112.92,-126 91.92,-126 88.92,-122 24.08,-122 24.08,-86 115.92,-86 115.92,-122"/>
<text text-anchor="middle" x="70" y="-99.8" font-family="Times,serif" font-size="14.00">UsersModule</text>
</g>
<!-- UsersModule&#45;&gt;AppModule -->
<g id="edge12" class="edge">
<title>UsersModule&#45;&gt;AppModule</title>
<path fill="none" stroke="black" d="M70,-122.09C70,-145.13 70,-182 70,-182 70,-182 808.08,-182 808.08,-182"/>
<polygon fill="black" stroke="black" points="808.08,-185.5 818.08,-182 808.08,-178.5 808.08,-185.5"/>
</g>
<!-- AppService -->
<g id="node14" class="node">
<title>AppService</title>
<ellipse fill="#fdb462" stroke="black" cx="1818" cy="-104" rx="56.74" ry="18"/>
<text text-anchor="middle" x="1818" y="-99.8" font-family="Times,serif" font-size="14.00">AppService</text>
</g>
<!-- AppService&#45;&gt;AppModule -->
<g id="edge13" class="edge">
<title>AppService&#45;&gt;AppModule</title>
<path fill="none" stroke="black" d="M1818,-122.09C1818,-145.13 1818,-182 1818,-182 1818,-182 911.78,-182 911.78,-182"/>
<polygon fill="black" stroke="black" points="911.78,-178.5 901.78,-182 911.78,-185.5 911.78,-178.5"/>
</g>
</g>
</svg>
