<?xml version="1.0" encoding="UTF-8" standalone="no"?>
<!DOCTYPE svg PUBLIC "-//W3C//DTD SVG 1.1//EN"
 "http://www.w3.org/Graphics/SVG/1.1/DTD/svg11.dtd">
<!-- Generated by graphviz version 2.47.0 (20210316.0004)
 -->
<!-- Title: dependencies Pages: 1 -->
<svg width="2288pt" height="211pt"
 viewBox="0.00 0.00 2288.00 211.00" xmlns="http://www.w3.org/2000/svg" xmlns:xlink="http://www.w3.org/1999/xlink">
<g id="graph0" class="graph" transform="scale(1 1) rotate(0) translate(4 207)">
<title>dependencies</title>
<polygon fill="white" stroke="transparent" points="-4,4 -4,-207 2284,-207 2284,4 -4,4"/>
<text text-anchor="start" x="1119.01" y="-42.4" font-family="Times-12" font-weight="bold" font-size="14.00">Legend</text>
<polygon fill="#ffffb3" stroke="transparent" points="906,-10 906,-30 926,-30 926,-10 906,-10"/>
<text text-anchor="start" x="929.63" y="-15.4" font-family="Times-12" font-size="14.00"> &#160;Declarations</text>
<polygon fill="#8dd3c7" stroke="transparent" points="1019,-10 1019,-30 1039,-30 1039,-10 1019,-10"/>
<text text-anchor="start" x="1042.73" y="-15.4" font-family="Times-12" font-size="14.00"> &#160;Module</text>
<polygon fill="#80b1d3" stroke="transparent" points="1105,-10 1105,-30 1125,-30 1125,-10 1105,-10"/>
<text text-anchor="start" x="1128.78" y="-15.4" font-family="Times-12" font-size="14.00"> &#160;Bootstrap</text>
<polygon fill="#fdb462" stroke="transparent" points="1202,-10 1202,-30 1222,-30 1222,-10 1202,-10"/>
<text text-anchor="start" x="1225.67" y="-15.4" font-family="Times-12" font-size="14.00"> &#160;Providers</text>
<polygon fill="#fb8072" stroke="transparent" points="1298,-10 1298,-30 1318,-30 1318,-10 1298,-10"/>
<text text-anchor="start" x="1321.73" y="-15.4" font-family="Times-12" font-size="14.00"> &#160;Exports</text>
<g id="clust1" class="cluster">
<title>cluster_AppModule</title>
<polygon fill="none" stroke="black" stroke-dasharray="1,5" points="8,-70 8,-195 2272,-195 2272,-70 8,-70"/>
</g>
<g id="clust6" class="cluster">
<title>cluster_AppModule_providers</title>
<polygon fill="none" stroke="black" points="2134,-78 2134,-130 2264,-130 2264,-78 2134,-78"/>
</g>
<g id="clust3" class="cluster">
<title>cluster_AppModule_imports</title>
<polygon fill="none" stroke="black" points="16,-78 16,-130 2126,-130 2126,-78 16,-78"/>
</g>
<!-- AuthModule -->
<g id="node1" class="node">
<title>AuthModule</title>
<polygon fill="#8dd3c7" stroke="black" points="2117.55,-122 2114.55,-126 2093.55,-126 2090.55,-122 2030.45,-122 2030.45,-86 2117.55,-86 2117.55,-122"/>
<text text-anchor="middle" x="2074" y="-99.8" font-family="Times,serif" font-size="14.00">AuthModule</text>
</g>
<!-- AppModule -->
<g id="node16" class="node">
<title>AppModule</title>
<polygon fill="#8dd3c7" stroke="black" points="1164.66,-187 1161.66,-191 1140.66,-191 1137.66,-187 1081.34,-187 1081.34,-151 1164.66,-151 1164.66,-187"/>
<text text-anchor="middle" x="1123" y="-164.8" font-family="Times,serif" font-size="14.00">AppModule</text>
</g>
<!-- AuthModule&#45;&gt;AppModule -->
<g id="edge1" class="edge">
<title>AuthModule&#45;&gt;AppModule</title>
<path fill="none" stroke="black" d="M2074,-122.29C2074,-144.21 2074,-178 2074,-178 2074,-178 1174.78,-178 1174.78,-178"/>
<polygon fill="black" stroke="black" points="1174.78,-174.5 1164.78,-178 1174.78,-181.5 1174.78,-174.5"/>
</g>
<!-- CommonModule -->
<g id="node2" class="node">
<title>CommonModule</title>
<polygon fill="#8dd3c7" stroke="black" points="2011.67,-122 2008.67,-126 1987.67,-126 1984.67,-122 1900.33,-122 1900.33,-86 2011.67,-86 2011.67,-122"/>
<text text-anchor="middle" x="1956" y="-99.8" font-family="Times,serif" font-size="14.00">CommonModule</text>
</g>
<!-- CommonModule&#45;&gt;AppModule -->
<g id="edge2" class="edge">
<title>CommonModule&#45;&gt;AppModule</title>
<path fill="none" stroke="black" d="M1956,-122.03C1956,-142.77 1956,-174 1956,-174 1956,-174 1174.88,-174 1174.88,-174"/>
<polygon fill="black" stroke="black" points="1174.88,-170.5 1164.88,-174 1174.88,-177.5 1174.88,-170.5"/>
</g>
<!-- ContractAttributeValuesModule -->
<g id="node3" class="node">
<title>ContractAttributeValuesModule</title>
<polygon fill="#8dd3c7" stroke="black" points="1882.67,-122 1879.67,-126 1858.67,-126 1855.67,-122 1685.33,-122 1685.33,-86 1882.67,-86 1882.67,-122"/>
<text text-anchor="middle" x="1784" y="-99.8" font-family="Times,serif" font-size="14.00">ContractAttributeValuesModule</text>
</g>
<!-- ContractAttributeValuesModule&#45;&gt;AppModule -->
<g id="edge3" class="edge">
<title>ContractAttributeValuesModule&#45;&gt;AppModule</title>
<path fill="none" stroke="black" d="M1784,-122.11C1784,-141.34 1784,-169 1784,-169 1784,-169 1174.85,-169 1174.85,-169"/>
<polygon fill="black" stroke="black" points="1174.85,-165.5 1164.85,-169 1174.85,-172.5 1174.85,-165.5"/>
</g>
<!-- ContractAttributesModule -->
<g id="node4" class="node">
<title>ContractAttributesModule</title>
<polygon fill="#8dd3c7" stroke="black" points="1667.75,-122 1664.75,-126 1643.75,-126 1640.75,-122 1504.25,-122 1504.25,-86 1667.75,-86 1667.75,-122"/>
<text text-anchor="middle" x="1586" y="-99.8" font-family="Times,serif" font-size="14.00">ContractAttributesModule</text>
</g>
<!-- ContractAttributesModule&#45;&gt;AppModule -->
<g id="edge4" class="edge">
<title>ContractAttributesModule&#45;&gt;AppModule</title>
<path fill="none" stroke="black" d="M1586,-122.3C1586,-140.27 1586,-165 1586,-165 1586,-165 1174.9,-165 1174.9,-165"/>
<polygon fill="black" stroke="black" points="1174.9,-161.5 1164.9,-165 1174.9,-168.5 1174.9,-161.5"/>
</g>
<!-- ContractsModule -->
<g id="node5" class="node">
<title>ContractsModule</title>
<polygon fill="#8dd3c7" stroke="black" points="1486.7,-122 1483.7,-126 1462.7,-126 1459.7,-122 1373.3,-122 1373.3,-86 1486.7,-86 1486.7,-122"/>
<text text-anchor="middle" x="1430" y="-99.8" font-family="Times,serif" font-size="14.00">ContractsModule</text>
</g>
<!-- ContractsModule&#45;&gt;AppModule -->
<g id="edge5" class="edge">
<title>ContractsModule&#45;&gt;AppModule</title>
<path fill="none" stroke="black" d="M1430,-122.03C1430,-138.4 1430,-160 1430,-160 1430,-160 1174.72,-160 1174.72,-160"/>
<polygon fill="black" stroke="black" points="1174.72,-156.5 1164.72,-160 1174.72,-163.5 1174.72,-156.5"/>
</g>
<!-- ImagesModule -->
<g id="node6" class="node">
<title>ImagesModule</title>
<polygon fill="#8dd3c7" stroke="black" points="1354.97,-122 1351.97,-126 1330.97,-126 1327.97,-122 1255.03,-122 1255.03,-86 1354.97,-86 1354.97,-122"/>
<text text-anchor="middle" x="1305" y="-99.8" font-family="Times,serif" font-size="14.00">ImagesModule</text>
</g>
<!-- ImagesModule&#45;&gt;AppModule -->
<g id="edge6" class="edge">
<title>ImagesModule&#45;&gt;AppModule</title>
<path fill="none" stroke="black" d="M1305,-122.19C1305,-137.18 1305,-156 1305,-156 1305,-156 1174.75,-156 1174.75,-156"/>
<polygon fill="black" stroke="black" points="1174.75,-152.5 1164.75,-156 1174.75,-159.5 1174.75,-152.5"/>
</g>
<!-- OrdersModule -->
<g id="node7" class="node">
<title>OrdersModule</title>
<polygon fill="#8dd3c7" stroke="black" points="1236.64,-122 1233.64,-126 1212.64,-126 1209.64,-122 1139.36,-122 1139.36,-86 1236.64,-86 1236.64,-122"/>
<text text-anchor="middle" x="1188" y="-99.8" font-family="Times,serif" font-size="14.00">OrdersModule</text>
</g>
<!-- OrdersModule&#45;&gt;AppModule -->
<g id="edge7" class="edge">
<title>OrdersModule&#45;&gt;AppModule</title>
<path fill="none" stroke="black" d="M1152,-122.11C1152,-122.11 1152,-140.99 1152,-140.99"/>
<polygon fill="black" stroke="black" points="1148.5,-140.99 1152,-150.99 1155.5,-140.99 1148.5,-140.99"/>
</g>
<!-- ParticipantsModule -->
<g id="node8" class="node">
<title>ParticipantsModule</title>
<polygon fill="#8dd3c7" stroke="black" points="1120.64,-122 1117.64,-126 1096.64,-126 1093.64,-122 995.36,-122 995.36,-86 1120.64,-86 1120.64,-122"/>
<text text-anchor="middle" x="1058" y="-99.8" font-family="Times,serif" font-size="14.00">ParticipantsModule</text>
</g>
<!-- ParticipantsModule&#45;&gt;AppModule -->
<g id="edge8" class="edge">
<title>ParticipantsModule&#45;&gt;AppModule</title>
<path fill="none" stroke="black" d="M1101,-122.11C1101,-122.11 1101,-140.99 1101,-140.99"/>
<polygon fill="black" stroke="black" points="1097.5,-140.99 1101,-150.99 1104.5,-140.99 1097.5,-140.99"/>
</g>
<!-- ProductsModule -->
<g id="node9" class="node">
<title>ProductsModule</title>
<polygon fill="#8dd3c7" stroke="black" points="977.04,-122 974.04,-126 953.04,-126 950.04,-122 868.96,-122 868.96,-86 977.04,-86 977.04,-122"/>
<text text-anchor="middle" x="923" y="-99.8" font-family="Times,serif" font-size="14.00">ProductsModule</text>
</g>
<!-- ProductsModule&#45;&gt;AppModule -->
<g id="edge9" class="edge">
<title>ProductsModule&#45;&gt;AppModule</title>
<path fill="none" stroke="black" d="M923,-122.19C923,-137.18 923,-156 923,-156 923,-156 1071.07,-156 1071.07,-156"/>
<polygon fill="black" stroke="black" points="1071.07,-159.5 1081.07,-156 1071.07,-152.5 1071.07,-159.5"/>
</g>
<!-- QueueRedisModule -->
<g id="node10" class="node">
<title>QueueRedisModule</title>
<polygon fill="#8dd3c7" stroke="black" points="850.97,-122 847.97,-126 826.97,-126 823.97,-122 723.03,-122 723.03,-86 850.97,-86 850.97,-122"/>
<text text-anchor="middle" x="787" y="-99.8" font-family="Times,serif" font-size="14.00">QueueRedisModule</text>
</g>
<!-- QueueRedisModule&#45;&gt;AppModule -->
<g id="edge10" class="edge">
<title>QueueRedisModule&#45;&gt;AppModule</title>
<path fill="none" stroke="black" d="M787,-122.03C787,-138.4 787,-160 787,-160 787,-160 1071.12,-160 1071.12,-160"/>
<polygon fill="black" stroke="black" points="1071.12,-163.5 1081.12,-160 1071.12,-156.5 1071.12,-163.5"/>
</g>
<!-- RolesModule -->
<g id="node11" class="node">
<title>RolesModule</title>
<polygon fill="#8dd3c7" stroke="black" points="704.94,-122 701.94,-126 680.94,-126 677.94,-122 613.06,-122 613.06,-86 704.94,-86 704.94,-122"/>
<text text-anchor="middle" x="659" y="-99.8" font-family="Times,serif" font-size="14.00">RolesModule</text>
</g>
<!-- RolesModule&#45;&gt;AppModule -->
<g id="edge11" class="edge">
<title>RolesModule&#45;&gt;AppModule</title>
<path fill="none" stroke="black" d="M659,-122.3C659,-140.27 659,-165 659,-165 659,-165 1071,-165 1071,-165"/>
<polygon fill="black" stroke="black" points="1071,-168.5 1081,-165 1071,-161.5 1071,-168.5"/>
</g>
<!-- SmartContractsModule -->
<g id="node12" class="node">
<title>SmartContractsModule</title>
<polygon fill="#8dd3c7" stroke="black" points="595.14,-122 592.14,-126 571.14,-126 568.14,-122 448.86,-122 448.86,-86 595.14,-86 595.14,-122"/>
<text text-anchor="middle" x="522" y="-99.8" font-family="Times,serif" font-size="14.00">SmartContractsModule</text>
</g>
<!-- SmartContractsModule&#45;&gt;AppModule -->
<g id="edge12" class="edge">
<title>SmartContractsModule&#45;&gt;AppModule</title>
<path fill="none" stroke="black" d="M522,-122.11C522,-141.34 522,-169 522,-169 522,-169 1071.22,-169 1071.22,-169"/>
<polygon fill="black" stroke="black" points="1071.22,-172.5 1081.22,-169 1071.22,-165.5 1071.22,-172.5"/>
</g>
<!-- SuppliersModule -->
<g id="node13" class="node">
<title>SuppliersModule</title>
<polygon fill="#8dd3c7" stroke="black" points="430.43,-122 427.43,-126 406.43,-126 403.43,-122 317.57,-122 317.57,-86 430.43,-86 430.43,-122"/>
<text text-anchor="middle" x="374" y="-99.8" font-family="Times,serif" font-size="14.00">SuppliersModule</text>
</g>
<!-- SuppliersModule&#45;&gt;AppModule -->
<g id="edge13" class="edge">
<title>SuppliersModule&#45;&gt;AppModule</title>
<path fill="none" stroke="black" d="M374,-122.03C374,-142.77 374,-174 374,-174 374,-174 1071.13,-174 1071.13,-174"/>
<polygon fill="black" stroke="black" points="1071.13,-177.5 1081.13,-174 1071.13,-170.5 1071.13,-177.5"/>
</g>
<!-- TemplateContractsModule -->
<g id="node14" class="node">
<title>TemplateContractsModule</title>
<polygon fill="#8dd3c7" stroke="black" points="300.07,-122 297.07,-126 276.07,-126 273.07,-122 133.93,-122 133.93,-86 300.07,-86 300.07,-122"/>
<text text-anchor="middle" x="217" y="-99.8" font-family="Times,serif" font-size="14.00">TemplateContractsModule</text>
</g>
<!-- TemplateContractsModule&#45;&gt;AppModule -->
<g id="edge14" class="edge">
<title>TemplateContractsModule&#45;&gt;AppModule</title>
<path fill="none" stroke="black" d="M217,-122.29C217,-144.21 217,-178 217,-178 217,-178 1071.12,-178 1071.12,-178"/>
<polygon fill="black" stroke="black" points="1071.12,-181.5 1081.12,-178 1071.12,-174.5 1071.12,-181.5"/>
</g>
<!-- UsersModule -->
<g id="node15" class="node">
<title>UsersModule</title>
<polygon fill="#8dd3c7" stroke="black" points="115.92,-122 112.92,-126 91.92,-126 88.92,-122 24.08,-122 24.08,-86 115.92,-86 115.92,-122"/>
<text text-anchor="middle" x="70" y="-99.8" font-family="Times,serif" font-size="14.00">UsersModule</text>
</g>
<!-- UsersModule&#45;&gt;AppModule -->
<g id="edge15" class="edge">
<title>UsersModule&#45;&gt;AppModule</title>
<path fill="none" stroke="black" d="M70,-122.32C70,-145.66 70,-183 70,-183 70,-183 1071.07,-183 1071.07,-183"/>
<polygon fill="black" stroke="black" points="1071.07,-186.5 1081.07,-183 1071.07,-179.5 1071.07,-186.5"/>
</g>
<!-- AppService -->
<g id="node17" class="node">
<title>AppService</title>
<ellipse fill="#fdb462" stroke="black" cx="2199" cy="-104" rx="56.74" ry="18"/>
<text text-anchor="middle" x="2199" y="-99.8" font-family="Times,serif" font-size="14.00">AppService</text>
</g>
<!-- AppService&#45;&gt;AppModule -->
<g id="edge16" class="edge">
<title>AppService&#45;&gt;AppModule</title>
<path fill="none" stroke="black" d="M2199,-122.32C2199,-145.66 2199,-183 2199,-183 2199,-183 1174.85,-183 1174.85,-183"/>
<polygon fill="black" stroke="black" points="1174.85,-179.5 1164.85,-183 1174.85,-186.5 1174.85,-179.5"/>
</g>
</g>
</svg>
