<?xml version="1.0" encoding="UTF-8" standalone="no"?>
<!DOCTYPE svg PUBLIC "-//W3C//DTD SVG 1.1//EN"
 "http://www.w3.org/Graphics/SVG/1.1/DTD/svg11.dtd">
<!-- Generated by graphviz version 2.47.0 (20210316.0004)
 -->
<!-- Title: dependencies Pages: 1 -->
<svg width="684pt" height="284pt"
 viewBox="0.00 0.00 684.00 284.00" xmlns="http://www.w3.org/2000/svg" xmlns:xlink="http://www.w3.org/1999/xlink">
<g id="graph0" class="graph" transform="scale(1 1) rotate(0) translate(4 280)">
<title>dependencies</title>
<polygon fill="white" stroke="transparent" points="-4,4 -4,-280 680,-280 680,4 -4,4"/>
<text text-anchor="start" x="317.01" y="-42.4" font-family="Times-12" font-weight="bold" font-size="14.00">Legend</text>
<polygon fill="#ffffb3" stroke="transparent" points="104,-10 104,-30 124,-30 124,-10 104,-10"/>
<text text-anchor="start" x="127.63" y="-15.4" font-family="Times-12" font-size="14.00"> &#160;Declarations</text>
<polygon fill="#8dd3c7" stroke="transparent" points="217,-10 217,-30 237,-30 237,-10 217,-10"/>
<text text-anchor="start" x="240.73" y="-15.4" font-family="Times-12" font-size="14.00"> &#160;Module</text>
<polygon fill="#80b1d3" stroke="transparent" points="303,-10 303,-30 323,-30 323,-10 303,-10"/>
<text text-anchor="start" x="326.78" y="-15.4" font-family="Times-12" font-size="14.00"> &#160;Bootstrap</text>
<polygon fill="#fdb462" stroke="transparent" points="400,-10 400,-30 420,-30 420,-10 400,-10"/>
<text text-anchor="start" x="423.67" y="-15.4" font-family="Times-12" font-size="14.00"> &#160;Providers</text>
<polygon fill="#fb8072" stroke="transparent" points="496,-10 496,-30 516,-30 516,-10 496,-10"/>
<text text-anchor="start" x="519.73" y="-15.4" font-family="Times-12" font-size="14.00"> &#160;Exports</text>
<g id="clust1" class="cluster">
<title>cluster_ContractAttributeValuesModule</title>
<polygon fill="none" stroke="black" stroke-dasharray="1,5" points="8,-70 8,-268 668,-268 668,-70 8,-70"/>
</g>
<g id="clust3" class="cluster">
<title>cluster_ContractAttributeValuesModule_imports</title>
<polygon fill="none" stroke="black" points="480,-78 480,-130 660,-130 660,-78 480,-78"/>
</g>
<g id="clust6" class="cluster">
<title>cluster_ContractAttributeValuesModule_providers</title>
<polygon fill="none" stroke="black" points="16,-78 16,-130 472,-130 472,-78 16,-78"/>
</g>
<g id="clust4" class="cluster">
<title>cluster_ContractAttributeValuesModule_exports</title>
<polygon fill="none" stroke="black" points="193,-208 193,-260 540,-260 540,-208 193,-208"/>
</g>
<!-- ContractAttributesModule -->
<g id="node1" class="node">
<title>ContractAttributesModule</title>
<polygon fill="#8dd3c7" stroke="black" points="651.75,-122 648.75,-126 627.75,-126 624.75,-122 488.25,-122 488.25,-86 651.75,-86 651.75,-122"/>
<text text-anchor="middle" x="570" y="-99.8" font-family="Times,serif" font-size="14.00">ContractAttributesModule</text>
</g>
<!-- ContractAttributeValuesModule -->
<g id="node2" class="node">
<title>ContractAttributeValuesModule</title>
<polygon fill="#8dd3c7" stroke="black" points="486.67,-187 483.67,-191 462.67,-191 459.67,-187 289.33,-187 289.33,-151 486.67,-151 486.67,-187"/>
<text text-anchor="middle" x="388" y="-164.8" font-family="Times,serif" font-size="14.00">ContractAttributeValuesModule</text>
</g>
<!-- ContractAttributesModule&#45;&gt;ContractAttributeValuesModule -->
<g id="edge1" class="edge">
<title>ContractAttributesModule&#45;&gt;ContractAttributeValuesModule</title>
<path fill="none" stroke="black" d="M488.04,-104C480.3,-104 475.26,-104 475.26,-104 475.26,-104 475.26,-140.89 475.26,-140.89"/>
<polygon fill="black" stroke="black" points="471.76,-140.89 475.26,-150.89 478.76,-140.89 471.76,-140.89"/>
</g>
<!-- CommonService  -->
<g id="node3" class="node">
<title>CommonService </title>
<polygon fill="#fb8072" stroke="black" points="531.6,-252 418.4,-252 418.4,-216 531.6,-216 531.6,-252"/>
<text text-anchor="middle" x="475" y="-229.8" font-family="Times,serif" font-size="14.00">CommonService </text>
</g>
<!-- ContractAttributeValuesModule&#45;&gt;CommonService  -->
<g id="edge2" class="edge">
<title>ContractAttributeValuesModule&#45;&gt;CommonService </title>
<path fill="none" stroke="black" stroke-dasharray="5,2" d="M452.39,-187.11C452.39,-187.11 452.39,-205.99 452.39,-205.99"/>
<polygon fill="black" stroke="black" points="448.89,-205.99 452.39,-215.99 455.89,-205.99 448.89,-205.99"/>
</g>
<!-- ContractAttributeValuesService  -->
<g id="node4" class="node">
<title>ContractAttributeValuesService </title>
<polygon fill="#fb8072" stroke="black" points="400.6,-252 201.4,-252 201.4,-216 400.6,-216 400.6,-252"/>
<text text-anchor="middle" x="301" y="-229.8" font-family="Times,serif" font-size="14.00">ContractAttributeValuesService </text>
</g>
<!-- ContractAttributeValuesModule&#45;&gt;ContractAttributeValuesService  -->
<g id="edge3" class="edge">
<title>ContractAttributeValuesModule&#45;&gt;ContractAttributeValuesService </title>
<path fill="none" stroke="black" stroke-dasharray="5,2" d="M344.98,-187.11C344.98,-187.11 344.98,-205.99 344.98,-205.99"/>
<polygon fill="black" stroke="black" points="341.48,-205.99 344.98,-215.99 348.48,-205.99 341.48,-205.99"/>
</g>
<!-- CommonService -->
<g id="node5" class="node">
<title>CommonService</title>
<ellipse fill="#fdb462" stroke="black" cx="388" cy="-104" rx="75.88" ry="18"/>
<text text-anchor="middle" x="388" y="-99.8" font-family="Times,serif" font-size="14.00">CommonService</text>
</g>
<!-- CommonService&#45;&gt;ContractAttributeValuesModule -->
<g id="edge4" class="edge">
<title>CommonService&#45;&gt;ContractAttributeValuesModule</title>
<path fill="none" stroke="black" d="M388,-122.11C388,-122.11 388,-140.99 388,-140.99"/>
<polygon fill="black" stroke="black" points="384.5,-140.99 388,-150.99 391.5,-140.99 384.5,-140.99"/>
</g>
<!-- ContractAttributeValuesService -->
<g id="node6" class="node">
<title>ContractAttributeValuesService</title>
<ellipse fill="#fdb462" stroke="black" cx="159" cy="-104" rx="134.84" ry="18"/>
<text text-anchor="middle" x="159" y="-99.8" font-family="Times,serif" font-size="14.00">ContractAttributeValuesService</text>
</g>
<!-- ContractAttributeValuesService&#45;&gt;ContractAttributeValuesModule -->
<g id="edge5" class="edge">
<title>ContractAttributeValuesService&#45;&gt;ContractAttributeValuesModule</title>
<path fill="none" stroke="black" d="M293.98,-104C299.65,-104 302.99,-104 302.99,-104 302.99,-104 302.99,-140.89 302.99,-140.89"/>
<polygon fill="black" stroke="black" points="299.49,-140.89 302.99,-150.89 306.49,-140.89 299.49,-140.89"/>
</g>
</g>
</svg>
