<?xml version="1.0" encoding="UTF-8" standalone="no"?>
<!DOCTYPE svg PUBLIC "-//W3C//DTD SVG 1.1//EN"
 "http://www.w3.org/Graphics/SVG/1.1/DTD/svg11.dtd">
<!-- Generated by graphviz version 2.47.0 (20210316.0004)
 -->
<!-- Title: dependencies Pages: 1 -->
<svg width="1257pt" height="284pt"
 viewBox="0.00 0.00 1257.00 284.00" xmlns="http://www.w3.org/2000/svg" xmlns:xlink="http://www.w3.org/1999/xlink">
<g id="graph0" class="graph" transform="scale(1 1) rotate(0) translate(4 280)">
<title>dependencies</title>
<polygon fill="white" stroke="transparent" points="-4,4 -4,-280 1253,-280 1253,4 -4,4"/>
<text text-anchor="start" x="603.51" y="-42.4" font-family="Times-12" font-weight="bold" font-size="14.00">Legend</text>
<polygon fill="#ffffb3" stroke="transparent" points="390.5,-10 390.5,-30 410.5,-30 410.5,-10 390.5,-10"/>
<text text-anchor="start" x="414.13" y="-15.4" font-family="Times-12" font-size="14.00"> &#160;Declarations</text>
<polygon fill="#8dd3c7" stroke="transparent" points="503.5,-10 503.5,-30 523.5,-30 523.5,-10 503.5,-10"/>
<text text-anchor="start" x="527.23" y="-15.4" font-family="Times-12" font-size="14.00"> &#160;Module</text>
<polygon fill="#80b1d3" stroke="transparent" points="589.5,-10 589.5,-30 609.5,-30 609.5,-10 589.5,-10"/>
<text text-anchor="start" x="613.28" y="-15.4" font-family="Times-12" font-size="14.00"> &#160;Bootstrap</text>
<polygon fill="#fdb462" stroke="transparent" points="686.5,-10 686.5,-30 706.5,-30 706.5,-10 686.5,-10"/>
<text text-anchor="start" x="710.17" y="-15.4" font-family="Times-12" font-size="14.00"> &#160;Providers</text>
<polygon fill="#fb8072" stroke="transparent" points="782.5,-10 782.5,-30 802.5,-30 802.5,-10 782.5,-10"/>
<text text-anchor="start" x="806.23" y="-15.4" font-family="Times-12" font-size="14.00"> &#160;Exports</text>
<g id="clust1" class="cluster">
<title>cluster_ContractsModule</title>
<polygon fill="none" stroke="black" stroke-dasharray="1,5" points="8,-70 8,-268 1241,-268 1241,-70 8,-70"/>
</g>
<g id="clust3" class="cluster">
<title>cluster_ContractsModule_imports</title>
<polygon fill="none" stroke="black" points="194,-78 194,-130 1233,-130 1233,-78 194,-78"/>
</g>
<g id="clust4" class="cluster">
<title>cluster_ContractsModule_exports</title>
<polygon fill="none" stroke="black" points="547,-208 547,-260 679,-260 679,-208 547,-208"/>
</g>
<g id="clust6" class="cluster">
<title>cluster_ContractsModule_providers</title>
<polygon fill="none" stroke="black" points="16,-78 16,-130 186,-130 186,-78 16,-78"/>
</g>
<!-- ContractAttributeValuesModule -->
<g id="node1" class="node">
<title>ContractAttributeValuesModule</title>
<polygon fill="#8dd3c7" stroke="black" points="1224.67,-122 1221.67,-126 1200.67,-126 1197.67,-122 1027.33,-122 1027.33,-86 1224.67,-86 1224.67,-122"/>
<text text-anchor="middle" x="1126" y="-99.8" font-family="Times,serif" font-size="14.00">ContractAttributeValuesModule</text>
</g>
<!-- ContractsModule -->
<g id="node8" class="node">
<title>ContractsModule</title>
<polygon fill="#8dd3c7" stroke="black" points="669.7,-187 666.7,-191 645.7,-191 642.7,-187 556.3,-187 556.3,-151 669.7,-151 669.7,-187"/>
<text text-anchor="middle" x="613" y="-164.8" font-family="Times,serif" font-size="14.00">ContractsModule</text>
</g>
<!-- ContractAttributeValuesModule&#45;&gt;ContractsModule -->
<g id="edge1" class="edge">
<title>ContractAttributeValuesModule&#45;&gt;ContractsModule</title>
<path fill="none" stroke="black" d="M1126,-122.29C1126,-144.21 1126,-178 1126,-178 1126,-178 679.86,-178 679.86,-178"/>
<polygon fill="black" stroke="black" points="679.86,-174.5 669.86,-178 679.86,-181.5 679.86,-174.5"/>
</g>
<!-- ContractAttributesModule -->
<g id="node2" class="node">
<title>ContractAttributesModule</title>
<polygon fill="#8dd3c7" stroke="black" points="1009.75,-122 1006.75,-126 985.75,-126 982.75,-122 846.25,-122 846.25,-86 1009.75,-86 1009.75,-122"/>
<text text-anchor="middle" x="928" y="-99.8" font-family="Times,serif" font-size="14.00">ContractAttributesModule</text>
</g>
<!-- ContractAttributesModule&#45;&gt;ContractsModule -->
<g id="edge2" class="edge">
<title>ContractAttributesModule&#45;&gt;ContractsModule</title>
<path fill="none" stroke="black" d="M928,-122.11C928,-141.34 928,-169 928,-169 928,-169 679.68,-169 679.68,-169"/>
<polygon fill="black" stroke="black" points="679.68,-165.5 669.68,-169 679.68,-172.5 679.68,-165.5"/>
</g>
<!-- MailModule -->
<g id="node3" class="node">
<title>MailModule</title>
<polygon fill="#8dd3c7" stroke="black" points="827.99,-122 824.99,-126 803.99,-126 800.99,-122 742.01,-122 742.01,-86 827.99,-86 827.99,-122"/>
<text text-anchor="middle" x="785" y="-99.8" font-family="Times,serif" font-size="14.00">MailModule</text>
</g>
<!-- MailModule&#45;&gt;ContractsModule -->
<g id="edge3" class="edge">
<title>MailModule&#45;&gt;ContractsModule</title>
<path fill="none" stroke="black" d="M785,-122.03C785,-138.4 785,-160 785,-160 785,-160 679.8,-160 679.8,-160"/>
<polygon fill="black" stroke="black" points="679.8,-156.5 669.8,-160 679.8,-163.5 679.8,-156.5"/>
</g>
<!-- OrdersModule -->
<g id="node4" class="node">
<title>OrdersModule</title>
<polygon fill="#8dd3c7" stroke="black" points="723.64,-122 720.64,-126 699.64,-126 696.64,-122 626.36,-122 626.36,-86 723.64,-86 723.64,-122"/>
<text text-anchor="middle" x="675" y="-99.8" font-family="Times,serif" font-size="14.00">OrdersModule</text>
</g>
<!-- OrdersModule&#45;&gt;ContractsModule -->
<g id="edge4" class="edge">
<title>OrdersModule&#45;&gt;ContractsModule</title>
<path fill="none" stroke="black" d="M647.89,-122.11C647.89,-122.11 647.89,-140.99 647.89,-140.99"/>
<polygon fill="black" stroke="black" points="644.39,-140.99 647.89,-150.99 651.39,-140.99 644.39,-140.99"/>
</g>
<!-- SuppliersModule -->
<g id="node5" class="node">
<title>SuppliersModule</title>
<polygon fill="#8dd3c7" stroke="black" points="608.43,-122 605.43,-126 584.43,-126 581.43,-122 495.57,-122 495.57,-86 608.43,-86 608.43,-122"/>
<text text-anchor="middle" x="552" y="-99.8" font-family="Times,serif" font-size="14.00">SuppliersModule</text>
</g>
<!-- SuppliersModule&#45;&gt;ContractsModule -->
<g id="edge5" class="edge">
<title>SuppliersModule&#45;&gt;ContractsModule</title>
<path fill="none" stroke="black" d="M582.31,-122.11C582.31,-122.11 582.31,-140.99 582.31,-140.99"/>
<polygon fill="black" stroke="black" points="578.81,-140.99 582.31,-150.99 585.81,-140.99 578.81,-140.99"/>
</g>
<!-- TemplateContractsModule -->
<g id="node6" class="node">
<title>TemplateContractsModule</title>
<polygon fill="#8dd3c7" stroke="black" points="478.07,-122 475.07,-126 454.07,-126 451.07,-122 311.93,-122 311.93,-86 478.07,-86 478.07,-122"/>
<text text-anchor="middle" x="395" y="-99.8" font-family="Times,serif" font-size="14.00">TemplateContractsModule</text>
</g>
<!-- TemplateContractsModule&#45;&gt;ContractsModule -->
<g id="edge6" class="edge">
<title>TemplateContractsModule&#45;&gt;ContractsModule</title>
<path fill="none" stroke="black" d="M395,-122.03C395,-138.4 395,-160 395,-160 395,-160 546.29,-160 546.29,-160"/>
<polygon fill="black" stroke="black" points="546.29,-163.5 556.29,-160 546.29,-156.5 546.29,-163.5"/>
</g>
<!-- UsersModule -->
<g id="node7" class="node">
<title>UsersModule</title>
<polygon fill="#8dd3c7" stroke="black" points="293.92,-122 290.92,-126 269.92,-126 266.92,-122 202.08,-122 202.08,-86 293.92,-86 293.92,-122"/>
<text text-anchor="middle" x="248" y="-99.8" font-family="Times,serif" font-size="14.00">UsersModule</text>
</g>
<!-- UsersModule&#45;&gt;ContractsModule -->
<g id="edge7" class="edge">
<title>UsersModule&#45;&gt;ContractsModule</title>
<path fill="none" stroke="black" d="M248,-122.11C248,-141.34 248,-169 248,-169 248,-169 546.37,-169 546.37,-169"/>
<polygon fill="black" stroke="black" points="546.37,-172.5 556.37,-169 546.37,-165.5 546.37,-172.5"/>
</g>
<!-- ContractsService  -->
<g id="node9" class="node">
<title>ContractsService </title>
<polygon fill="#fb8072" stroke="black" points="670.63,-252 555.37,-252 555.37,-216 670.63,-216 670.63,-252"/>
<text text-anchor="middle" x="613" y="-229.8" font-family="Times,serif" font-size="14.00">ContractsService </text>
</g>
<!-- ContractsModule&#45;&gt;ContractsService  -->
<g id="edge8" class="edge">
<title>ContractsModule&#45;&gt;ContractsService </title>
<path fill="none" stroke="black" stroke-dasharray="5,2" d="M613,-187.11C613,-187.11 613,-205.99 613,-205.99"/>
<polygon fill="black" stroke="black" points="609.5,-205.99 613,-215.99 616.5,-205.99 609.5,-205.99"/>
</g>
<!-- ContractsService -->
<g id="node10" class="node">
<title>ContractsService</title>
<ellipse fill="#fdb462" stroke="black" cx="101" cy="-104" rx="77" ry="18"/>
<text text-anchor="middle" x="101" y="-99.8" font-family="Times,serif" font-size="14.00">ContractsService</text>
</g>
<!-- ContractsService&#45;&gt;ContractsModule -->
<g id="edge9" class="edge">
<title>ContractsService&#45;&gt;ContractsModule</title>
<path fill="none" stroke="black" d="M101,-122.29C101,-144.21 101,-178 101,-178 101,-178 546.25,-178 546.25,-178"/>
<polygon fill="black" stroke="black" points="546.25,-181.5 556.25,-178 546.25,-174.5 546.25,-181.5"/>
</g>
</g>
</svg>
