<?xml version="1.0" encoding="UTF-8" standalone="no"?>
<!DOCTYPE svg PUBLIC "-//W3C//DTD SVG 1.1//EN"
 "http://www.w3.org/Graphics/SVG/1.1/DTD/svg11.dtd">
<!-- Generated by graphviz version 2.47.0 (20210316.0004)
 -->
<!-- Title: dependencies Pages: 1 -->
<svg width="1345pt" height="284pt"
 viewBox="0.00 0.00 1345.00 284.00" xmlns="http://www.w3.org/2000/svg" xmlns:xlink="http://www.w3.org/1999/xlink">
<g id="graph0" class="graph" transform="scale(1 1) rotate(0) translate(4 280)">
<title>dependencies</title>
<polygon fill="white" stroke="transparent" points="-4,4 -4,-280 1341,-280 1341,4 -4,4"/>
<text text-anchor="start" x="647.51" y="-42.4" font-family="Times-12" font-weight="bold" font-size="14.00">Legend</text>
<polygon fill="#ffffb3" stroke="transparent" points="434.5,-10 434.5,-30 454.5,-30 454.5,-10 434.5,-10"/>
<text text-anchor="start" x="458.13" y="-15.4" font-family="Times-12" font-size="14.00"> &#160;Declarations</text>
<polygon fill="#8dd3c7" stroke="transparent" points="547.5,-10 547.5,-30 567.5,-30 567.5,-10 547.5,-10"/>
<text text-anchor="start" x="571.23" y="-15.4" font-family="Times-12" font-size="14.00"> &#160;Module</text>
<polygon fill="#80b1d3" stroke="transparent" points="633.5,-10 633.5,-30 653.5,-30 653.5,-10 633.5,-10"/>
<text text-anchor="start" x="657.28" y="-15.4" font-family="Times-12" font-size="14.00"> &#160;Bootstrap</text>
<polygon fill="#fdb462" stroke="transparent" points="730.5,-10 730.5,-30 750.5,-30 750.5,-10 730.5,-10"/>
<text text-anchor="start" x="754.17" y="-15.4" font-family="Times-12" font-size="14.00"> &#160;Providers</text>
<polygon fill="#fb8072" stroke="transparent" points="826.5,-10 826.5,-30 846.5,-30 846.5,-10 826.5,-10"/>
<text text-anchor="start" x="850.23" y="-15.4" font-family="Times-12" font-size="14.00"> &#160;Exports</text>
<g id="clust1" class="cluster">
<title>cluster_ContractsModule</title>
<polygon fill="none" stroke="black" stroke-dasharray="1,5" points="8,-70 8,-268 1329,-268 1329,-70 8,-70"/>
</g>
<g id="clust6" class="cluster">
<title>cluster_ContractsModule_providers</title>
<polygon fill="none" stroke="black" points="981,-78 981,-130 1321,-130 1321,-78 981,-78"/>
</g>
<g id="clust3" class="cluster">
<title>cluster_ContractsModule_imports</title>
<polygon fill="none" stroke="black" points="16,-78 16,-130 973,-130 973,-78 16,-78"/>
</g>
<g id="clust4" class="cluster">
<title>cluster_ContractsModule_exports</title>
<polygon fill="none" stroke="black" points="444,-208 444,-260 707,-260 707,-208 444,-208"/>
</g>
<!-- ContractAttributeValuesModule -->
<g id="node1" class="node">
<title>ContractAttributeValuesModule</title>
<polygon fill="#8dd3c7" stroke="black" points="964.67,-122 961.67,-126 940.67,-126 937.67,-122 767.33,-122 767.33,-86 964.67,-86 964.67,-122"/>
<text text-anchor="middle" x="866" y="-99.8" font-family="Times,serif" font-size="14.00">ContractAttributeValuesModule</text>
</g>
<!-- ContractsModule -->
<g id="node7" class="node">
<title>ContractsModule</title>
<polygon fill="#8dd3c7" stroke="black" points="632.7,-187 629.7,-191 608.7,-191 605.7,-187 519.3,-187 519.3,-151 632.7,-151 632.7,-187"/>
<text text-anchor="middle" x="576" y="-164.8" font-family="Times,serif" font-size="14.00">ContractsModule</text>
</g>
<!-- ContractAttributeValuesModule&#45;&gt;ContractsModule -->
<g id="edge1" class="edge">
<title>ContractAttributeValuesModule&#45;&gt;ContractsModule</title>
<path fill="none" stroke="black" d="M866,-122.03C866,-138.4 866,-160 866,-160 866,-160 642.6,-160 642.6,-160"/>
<polygon fill="black" stroke="black" points="642.6,-156.5 632.6,-160 642.6,-163.5 642.6,-156.5"/>
</g>
<!-- ContractAttributesModule -->
<g id="node2" class="node">
<title>ContractAttributesModule</title>
<polygon fill="#8dd3c7" stroke="black" points="749.75,-122 746.75,-126 725.75,-126 722.75,-122 586.25,-122 586.25,-86 749.75,-86 749.75,-122"/>
<text text-anchor="middle" x="668" y="-99.8" font-family="Times,serif" font-size="14.00">ContractAttributesModule</text>
</g>
<!-- ContractAttributesModule&#45;&gt;ContractsModule -->
<g id="edge2" class="edge">
<title>ContractAttributesModule&#45;&gt;ContractsModule</title>
<path fill="none" stroke="black" d="M609.36,-122.11C609.36,-122.11 609.36,-140.99 609.36,-140.99"/>
<polygon fill="black" stroke="black" points="605.86,-140.99 609.36,-150.99 612.86,-140.99 605.86,-140.99"/>
</g>
<!-- ContractPartyInfosModule -->
<g id="node3" class="node">
<title>ContractPartyInfosModule</title>
<polygon fill="#8dd3c7" stroke="black" points="568.07,-122 565.07,-126 544.07,-126 541.07,-122 401.93,-122 401.93,-86 568.07,-86 568.07,-122"/>
<text text-anchor="middle" x="485" y="-99.8" font-family="Times,serif" font-size="14.00">ContractPartyInfosModule</text>
</g>
<!-- ContractPartyInfosModule&#45;&gt;ContractsModule -->
<g id="edge3" class="edge">
<title>ContractPartyInfosModule&#45;&gt;ContractsModule</title>
<path fill="none" stroke="black" d="M543.72,-122.11C543.72,-122.11 543.72,-140.99 543.72,-140.99"/>
<polygon fill="black" stroke="black" points="540.22,-140.99 543.72,-150.99 547.22,-140.99 540.22,-140.99"/>
</g>
<!-- InvitationsModule -->
<g id="node4" class="node">
<title>InvitationsModule</title>
<polygon fill="#8dd3c7" stroke="black" points="383.93,-122 380.93,-126 359.93,-126 356.93,-122 264.07,-122 264.07,-86 383.93,-86 383.93,-122"/>
<text text-anchor="middle" x="324" y="-99.8" font-family="Times,serif" font-size="14.00">InvitationsModule</text>
</g>
<!-- InvitationsModule&#45;&gt;ContractsModule -->
<g id="edge4" class="edge">
<title>InvitationsModule&#45;&gt;ContractsModule</title>
<path fill="none" stroke="black" d="M324,-122.03C324,-138.4 324,-160 324,-160 324,-160 509.13,-160 509.13,-160"/>
<polygon fill="black" stroke="black" points="509.13,-163.5 519.13,-160 509.13,-156.5 509.13,-163.5"/>
</g>
<!-- MailModule -->
<g id="node5" class="node">
<title>MailModule</title>
<polygon fill="#8dd3c7" stroke="black" points="245.99,-122 242.99,-126 221.99,-126 218.99,-122 160.01,-122 160.01,-86 245.99,-86 245.99,-122"/>
<text text-anchor="middle" x="203" y="-99.8" font-family="Times,serif" font-size="14.00">MailModule</text>
</g>
<!-- MailModule&#45;&gt;ContractsModule -->
<g id="edge5" class="edge">
<title>MailModule&#45;&gt;ContractsModule</title>
<path fill="none" stroke="black" d="M203,-122.11C203,-141.34 203,-169 203,-169 203,-169 509.35,-169 509.35,-169"/>
<polygon fill="black" stroke="black" points="509.35,-172.5 519.35,-169 509.35,-165.5 509.35,-172.5"/>
</g>
<!-- PartyInfosModule -->
<g id="node6" class="node">
<title>PartyInfosModule</title>
<polygon fill="#8dd3c7" stroke="black" points="141.86,-122 138.86,-126 117.86,-126 114.86,-122 24.14,-122 24.14,-86 141.86,-86 141.86,-122"/>
<text text-anchor="middle" x="83" y="-99.8" font-family="Times,serif" font-size="14.00">PartyInfosModule</text>
</g>
<!-- PartyInfosModule&#45;&gt;ContractsModule -->
<g id="edge6" class="edge">
<title>PartyInfosModule&#45;&gt;ContractsModule</title>
<path fill="none" stroke="black" d="M83,-122.29C83,-144.21 83,-178 83,-178 83,-178 508.97,-178 508.97,-178"/>
<polygon fill="black" stroke="black" points="508.97,-181.5 518.97,-178 508.96,-174.5 508.97,-181.5"/>
</g>
<!-- CommonService  -->
<g id="node8" class="node">
<title>CommonService </title>
<polygon fill="#fb8072" stroke="black" points="698.6,-252 585.4,-252 585.4,-216 698.6,-216 698.6,-252"/>
<text text-anchor="middle" x="642" y="-229.8" font-family="Times,serif" font-size="14.00">CommonService </text>
</g>
<!-- ContractsModule&#45;&gt;CommonService  -->
<g id="edge7" class="edge">
<title>ContractsModule&#45;&gt;CommonService </title>
<path fill="none" stroke="black" stroke-dasharray="5,2" d="M608.9,-187.11C608.9,-187.11 608.9,-205.99 608.9,-205.99"/>
<polygon fill="black" stroke="black" points="605.4,-205.99 608.9,-215.99 612.4,-205.99 605.4,-205.99"/>
</g>
<!-- ContractsService  -->
<g id="node9" class="node">
<title>ContractsService </title>
<polygon fill="#fb8072" stroke="black" points="567.63,-252 452.37,-252 452.37,-216 567.63,-216 567.63,-252"/>
<text text-anchor="middle" x="510" y="-229.8" font-family="Times,serif" font-size="14.00">ContractsService </text>
</g>
<!-- ContractsModule&#45;&gt;ContractsService  -->
<g id="edge8" class="edge">
<title>ContractsModule&#45;&gt;ContractsService </title>
<path fill="none" stroke="black" stroke-dasharray="5,2" d="M543.48,-187.11C543.48,-187.11 543.48,-205.99 543.48,-205.99"/>
<polygon fill="black" stroke="black" points="539.98,-205.99 543.48,-215.99 546.98,-205.99 539.98,-205.99"/>
</g>
<!-- CommonService -->
<g id="node10" class="node">
<title>CommonService</title>
<ellipse fill="#fdb462" stroke="black" cx="1237" cy="-104" rx="75.88" ry="18"/>
<text text-anchor="middle" x="1237" y="-99.8" font-family="Times,serif" font-size="14.00">CommonService</text>
</g>
<!-- CommonService&#45;&gt;ContractsModule -->
<g id="edge9" class="edge">
<title>CommonService&#45;&gt;ContractsModule</title>
<path fill="none" stroke="black" d="M1237,-122.29C1237,-144.21 1237,-178 1237,-178 1237,-178 642.64,-178 642.64,-178"/>
<polygon fill="black" stroke="black" points="642.64,-174.5 632.64,-178 642.64,-181.5 642.64,-174.5"/>
</g>
<!-- ContractsService -->
<g id="node11" class="node">
<title>ContractsService</title>
<ellipse fill="#fdb462" stroke="black" cx="1066" cy="-104" rx="77" ry="18"/>
<text text-anchor="middle" x="1066" y="-99.8" font-family="Times,serif" font-size="14.00">ContractsService</text>
</g>
<!-- ContractsService&#45;&gt;ContractsModule -->
<g id="edge10" class="edge">
<title>ContractsService&#45;&gt;ContractsModule</title>
<path fill="none" stroke="black" d="M1066,-122.11C1066,-141.34 1066,-169 1066,-169 1066,-169 642.69,-169 642.69,-169"/>
<polygon fill="black" stroke="black" points="642.69,-165.5 632.69,-169 642.69,-172.5 642.69,-165.5"/>
</g>
</g>
</svg>
